<svg width="40" height="67" viewBox="0 0 40 67" fill="none" xmlns="http://www.w3.org/2000/svg">
<path d="M19.9998 66.1297C17.8923 66.1297 15.8296 65.2696 14.341 63.7717C12.8505 62.2489 12 60.1714 12 58.0653C12 55.9593 12.8505 53.8818 14.3328 52.3682C15.8498 50.8574 17.9106 50.001 19.9998 50.001C22.0891 50.001 24.1499 50.8574 25.6514 52.3525C27.1501 53.8846 27.9997 55.9611 27.9997 58.0653C27.9997 60.1696 27.1501 62.2452 25.6669 63.7625C25.2238 64.1861 24.8411 64.5008 24.4548 64.7675C23.9833 65.0711 23.5301 65.3093 23.0641 65.504C22.5597 65.7172 22.0488 65.8741 21.5498 65.9719C20.9969 66.078 20.4906 66.1297 19.9998 66.1297V66.1297ZM19.9998 53.2265C18.7456 53.2265 17.505 53.7443 16.595 54.6487C15.7143 55.5495 15.1998 56.8 15.1998 58.0653C15.1998 59.3297 15.7143 60.5803 16.6106 61.4976C17.495 62.3873 18.7346 62.9042 19.9998 62.9042C20.2873 62.9042 20.5968 62.8709 20.9483 62.8036C21.2294 62.7491 21.5269 62.6568 21.8309 62.5276C22.1312 62.4012 22.4187 62.2498 22.6933 62.0754C22.9295 61.9102 23.1859 61.6896 23.4294 61.4561C24.2863 60.5803 24.7999 59.3288 24.7999 58.0653C24.7999 56.8019 24.2863 55.5495 23.3891 54.6331C22.4956 53.7443 21.255 53.2265 19.9998 53.2265V53.2265Z" fill="#C0579B"/>
<path d="M19.9996 48.3872C15.5896 48.3872 11.9998 44.7694 11.9998 40.3228V32.2584C11.9998 27.8118 15.5896 24.194 19.9996 24.194C22.2061 24.194 23.9996 22.3861 23.9996 20.1619C23.9996 17.9376 22.2061 16.1297 19.9996 16.1297C17.7932 16.1297 15.9997 17.9376 15.9997 20.1619C15.9997 24.6075 12.4109 28.2262 7.99986 28.2262C3.58886 28.2262 0 24.6075 0 20.1619C0 9.0445 8.97214 0 19.9996 0C31.028 0 40.0002 9.0445 40.0002 20.1619C40.0002 28.1635 35.2221 35.4498 27.9995 38.6385V40.3228C27.9995 44.7694 24.4106 48.3872 19.9996 48.3872V48.3872ZM19.9996 12.9032C23.9703 12.9032 27.2002 16.1592 27.2002 20.1619C27.2002 24.1636 23.9703 27.4196 19.9996 27.4196C17.3529 27.4196 15.1995 29.5903 15.1995 32.2584V40.3228C15.1995 42.9909 17.3529 45.1616 19.9996 45.1616C22.6464 45.1616 24.7997 42.9909 24.7997 40.3228V37.5522C24.7997 36.8785 25.2154 36.2749 25.8416 36.0405C32.3968 33.5809 36.7995 27.2009 36.7995 20.1619C36.7995 10.8229 29.2638 3.22649 19.9996 3.22649C10.7364 3.22649 3.19976 10.8229 3.19976 20.1619C3.19976 22.83 5.35307 25.0007 7.99986 25.0007C10.6466 25.0007 12.8 22.83 12.8 20.1619C12.8 16.1592 16.0299 12.9032 19.9996 12.9032V12.9032Z" fill="#C0579B"/>
</svg>
