<svg width="96" height="66" viewBox="0 0 96 66" fill="none" xmlns="http://www.w3.org/2000/svg">
<path d="M19.9481 65.4866C17.846 65.4866 15.7886 64.6355 14.3038 63.1534C12.8171 61.6467 11.9688 59.5911 11.9688 57.5072C11.9688 55.4233 12.8171 53.3678 14.2955 51.8701C15.8087 50.3753 17.8642 49.5278 19.9481 49.5278C22.032 49.5278 24.0876 50.3753 25.5852 51.8546C27.0801 53.3705 27.9275 55.4252 27.9275 57.5072C27.9275 59.5893 27.0801 61.643 25.6007 63.1443C25.1587 63.5634 24.777 63.8748 24.3917 64.1387C23.9214 64.4392 23.4694 64.6748 23.0045 64.8674C22.5014 65.0784 21.9918 65.2336 21.4941 65.3304C20.9426 65.4354 20.4376 65.4866 19.9481 65.4866ZM19.9481 52.7194C18.6971 52.7194 17.4597 53.2317 16.552 54.1266C15.6735 55.0179 15.1603 56.2552 15.1603 57.5072C15.1603 58.7583 15.6735 59.9956 16.5675 60.9033C17.4497 61.7836 18.6861 62.295 19.9481 62.295C20.2349 62.295 20.5435 62.2621 20.8942 62.1955C21.1745 62.1416 21.4713 62.0503 21.7745 61.9224C22.074 61.7973 22.3607 61.6476 22.6347 61.475C22.8703 61.3115 23.126 61.0933 23.3689 60.8622C24.2236 59.9956 24.7359 58.7574 24.7359 57.5072C24.7359 56.2571 24.2236 55.0179 23.3287 54.1111C22.4375 53.2317 21.2001 52.7194 19.9481 52.7194Z" fill="#C0579B"/>
<path d="M19.9485 47.9314C15.5497 47.9314 11.9691 44.3517 11.9691 39.952V31.9726C11.9691 27.5729 15.5497 23.9933 19.9485 23.9933C22.1492 23.9933 23.9381 22.2043 23.9381 20.0036C23.9381 17.8028 22.1492 16.0139 19.9485 16.0139C17.7477 16.0139 15.9588 17.8028 15.9588 20.0036C15.9588 24.4024 12.3791 27.9829 7.97938 27.9829C3.57967 27.9829 0 24.4024 0 20.0036C0 9.00338 8.94918 0.0541992 19.9485 0.0541992C30.9486 0.0541992 39.8978 9.00338 39.8978 20.0036C39.8978 27.9208 35.1319 35.1304 27.9278 38.2855V39.952C27.9278 44.3517 24.3482 47.9314 19.9485 47.9314ZM19.9485 12.8214C23.9089 12.8214 27.1306 16.0431 27.1306 20.0036C27.1306 23.9631 23.9089 27.1848 19.9485 27.1848C17.3084 27.1848 15.1606 29.3326 15.1606 31.9726V39.952C15.1606 42.592 17.3084 44.7398 19.9485 44.7398C22.5885 44.7398 24.7363 42.592 24.7363 39.952V37.2106C24.7363 36.544 25.1509 35.9468 25.7755 35.7149C32.3139 33.2812 36.7053 26.9684 36.7053 20.0036C36.7053 10.7631 29.1889 3.24668 19.9485 3.24668C10.7089 3.24668 3.19157 10.7631 3.19157 20.0036C3.19157 22.6436 5.33937 24.7914 7.97938 24.7914C10.6194 24.7914 12.7672 22.6436 12.7672 20.0036C12.7672 16.0431 15.9889 12.8214 19.9485 12.8214Z" fill="#C0579B"/>
<path d="M29.2702 16.6238C29.31 20.75 29.6864 24.9353 33.5924 26.2657C35.3131 26.8518 36.6389 27.1131 38.2471 26.2657C40.0994 25.2898 40.0228 23.5088 40.907 21.611C42.1208 19.0057 40.9201 16.3334 43.2343 14.6289C45.9705 12.6137 49.5672 13.1355 51.8788 15.6264C53.7669 17.6609 54.482 20.142 53.2087 22.6084C51.9565 25.0341 49.2252 24.1845 46.8916 25.6008C44.6716 26.948 42.9018 24.6032 41.5719 29.5905C40.242 34.5778 40.242 38.5676 40.907 41.2273C41.5719 43.887 44.1688 45.6458 47.2241 45.882C49.7243 46.0753 51.7682 45.6073 53.2087 43.5546C54.7004 41.429 53.2087 36.9051 53.2087 36.9051C53.2087 36.9051 58.1448 35.6268 60.5232 33.5803C64.0909 30.5104 64.9583 27.2826 65.5104 22.6084C66.3395 15.5907 64.6244 10.173 59.1933 5.65201C52.8867 0.402229 45.3584 -0.104703 38.2471 3.98961C33.0018 7.00961 29.2118 10.5715 29.2702 16.6238Z" fill="#0F1528"/>
<circle cx="47.2229" cy="57.1863" r="5.98463" fill="#0F1528"/>
<path d="M47.2216 65.4324C45.1194 65.4324 43.062 64.5813 41.5772 63.0992C40.0905 61.5925 39.2422 59.5369 39.2422 57.453C39.2422 55.3691 40.0905 53.3136 41.569 51.8159C43.0821 50.3211 45.1377 49.4736 47.2216 49.4736C49.3054 49.4736 51.361 50.3211 52.8586 51.8004C54.3535 53.3163 55.2009 55.371 55.2009 57.453C55.2009 59.5351 54.3535 61.5888 52.8742 63.0901C52.4322 63.5092 52.0505 63.8206 51.6651 64.0845C51.1948 64.385 50.7428 64.6206 50.278 64.8133C49.7748 65.0242 49.2653 65.1794 48.7676 65.2762C48.216 65.3812 47.711 65.4324 47.2216 65.4324ZM47.2216 52.6652C45.9705 52.6652 44.7331 53.1775 43.8254 54.0724C42.947 54.9637 42.4338 56.201 42.4338 57.453C42.4338 58.7041 42.947 59.9414 43.841 60.8491C44.7231 61.7294 45.9595 62.2408 47.2216 62.2408C47.5083 62.2408 47.817 62.2079 48.1676 62.1413C48.448 62.0874 48.7447 61.9961 49.0479 61.8682C49.3474 61.7431 49.6342 61.5934 49.9081 61.4208C50.1437 61.2573 50.3994 61.0391 50.6423 60.808C51.4971 59.9414 52.0094 58.7032 52.0094 57.453C52.0094 56.2029 51.4971 54.9637 50.6022 54.0569C49.7109 53.1775 48.4735 52.6652 47.2216 52.6652Z" fill="#F49500"/>
<path d="M47.2219 47.8772C42.8231 47.8772 39.2425 44.2975 39.2425 39.8978V31.9184C39.2425 27.5187 42.8231 23.9391 47.2219 23.9391C49.4227 23.9391 51.2116 22.1501 51.2116 19.9494C51.2116 17.7486 49.4227 15.9597 47.2219 15.9597C45.0211 15.9597 43.2322 17.7486 43.2322 19.9494C43.2322 24.3482 39.6525 27.9287 35.2528 27.9287C30.8531 27.9287 27.2734 24.3482 27.2734 19.9494C27.2734 8.94918 36.2226 0 47.2219 0C58.2221 0 67.1713 8.94918 67.1713 19.9494C67.1713 27.8666 62.4054 35.0762 55.2013 38.2313V39.8978C55.2013 44.2975 51.6216 47.8772 47.2219 47.8772ZM47.2219 12.7672C51.1824 12.7672 54.4041 15.9889 54.4041 19.9494C54.4041 23.9089 51.1824 27.1306 47.2219 27.1306C44.5819 27.1306 42.4341 29.2784 42.4341 31.9184V39.8978C42.4341 42.5378 44.5819 44.6856 47.2219 44.6856C49.8619 44.6856 52.0097 42.5378 52.0097 39.8978V37.1564C52.0097 36.4898 52.4243 35.8926 53.0489 35.6607C59.5873 33.227 63.9788 26.9142 63.9788 19.9494C63.9788 10.7089 56.4624 3.19248 47.2219 3.19248C37.9823 3.19248 30.465 10.7089 30.465 19.9494C30.465 22.5894 32.6128 24.7372 35.2528 24.7372C37.8928 24.7372 40.0406 22.5894 40.0406 19.9494C40.0406 15.9889 43.2623 12.7672 47.2219 12.7672Z" fill="#F49500"/>
<path d="M57.153 16.6238C57.1928 20.75 57.5692 24.9353 61.4752 26.2657C63.1959 26.8518 64.5217 27.1131 66.1299 26.2657C67.9822 25.2898 67.9056 23.5088 68.7898 21.611C70.0036 19.0057 68.8029 16.3334 71.1171 14.6289C73.8533 12.6137 77.45 13.1355 79.7616 15.6264C81.6497 17.6609 82.3648 20.142 81.0915 22.6084C79.8393 25.0341 77.1081 24.1845 74.7744 25.6008C72.5544 26.948 70.7847 24.6032 69.4547 29.5905C68.1248 34.5778 68.1248 38.5676 68.7898 41.2273C69.4547 43.887 72.0516 45.6458 75.1069 45.882C77.6071 46.0753 79.6511 45.6073 81.0915 43.5546C82.5832 41.429 81.0915 36.9051 81.0915 36.9051C81.0915 36.9051 86.0276 35.6268 88.4061 33.5803C91.9737 30.5104 92.8411 27.2826 93.3932 22.6084C94.2223 15.5907 92.5072 10.173 87.0761 5.65201C80.7695 0.402229 73.2412 -0.104703 66.1299 3.98961C60.8846 7.00961 57.0946 10.5715 57.153 16.6238Z" fill="#0F1528"/>
<circle cx="75.1057" cy="57.1863" r="5.98463" fill="#0F1528"/>
<path d="M75.1044 65.4324C73.0022 65.4324 70.9448 64.5813 69.46 63.0992C67.9733 61.5925 67.125 59.5369 67.125 57.453C67.125 55.3691 67.9733 53.3136 69.4518 51.8159C70.9649 50.3211 73.0205 49.4736 75.1044 49.4736C77.1883 49.4736 79.2438 50.3211 80.7414 51.8004C82.2363 53.3163 83.0837 55.371 83.0837 57.453C83.0837 59.5351 82.2363 61.5888 80.757 63.0901C80.315 63.5092 79.9333 63.8206 79.5479 64.0845C79.0776 64.385 78.6256 64.6206 78.1608 64.8133C77.6576 65.0242 77.1481 65.1794 76.6504 65.2762C76.0988 65.3812 75.5938 65.4324 75.1044 65.4324ZM75.1044 52.6652C73.8533 52.6652 72.616 53.1775 71.7083 54.0724C70.8298 54.9637 70.3166 56.201 70.3166 57.453C70.3166 58.7041 70.8298 59.9414 71.7238 60.8491C72.6059 61.7294 73.8424 62.2408 75.1044 62.2408C75.3911 62.2408 75.6998 62.2079 76.0504 62.1413C76.3308 62.0874 76.6276 61.9961 76.9307 61.8682C77.2303 61.7431 77.517 61.5934 77.791 61.4208C78.0266 61.2573 78.2822 61.0391 78.5252 60.808C79.3799 59.9414 79.8922 58.7032 79.8922 57.453C79.8922 56.2029 79.3799 54.9637 78.485 54.0569C77.5937 53.1775 76.3563 52.6652 75.1044 52.6652Z" fill="#1D97D5"/>
<path d="M75.1047 47.8772C70.7059 47.8772 67.1253 44.2975 67.1253 39.8978V31.9184C67.1253 27.5187 70.7059 23.9391 75.1047 23.9391C77.3055 23.9391 79.0944 22.1501 79.0944 19.9494C79.0944 17.7486 77.3055 15.9597 75.1047 15.9597C72.9039 15.9597 71.115 17.7486 71.115 19.9494C71.115 24.3482 67.5353 27.9287 63.1356 27.9287C58.7359 27.9287 55.1562 24.3482 55.1562 19.9494C55.1562 8.94918 64.1054 0 75.1047 0C86.1049 0 95.0541 8.94918 95.0541 19.9494C95.0541 27.8666 90.2882 35.0762 83.0841 38.2313V39.8978C83.0841 44.2975 79.5044 47.8772 75.1047 47.8772ZM75.1047 12.7672C79.0652 12.7672 82.2869 15.9889 82.2869 19.9494C82.2869 23.9089 79.0652 27.1306 75.1047 27.1306C72.4647 27.1306 70.3169 29.2784 70.3169 31.9184V39.8978C70.3169 42.5378 72.4647 44.6856 75.1047 44.6856C77.7447 44.6856 79.8925 42.5378 79.8925 39.8978V37.1564C79.8925 36.4898 80.3071 35.8926 80.9317 35.6607C87.4701 33.227 91.8616 26.9142 91.8616 19.9494C91.8616 10.7089 84.3452 3.19248 75.1047 3.19248C65.8651 3.19248 58.3478 10.7089 58.3478 19.9494C58.3478 22.5894 60.4956 24.7372 63.1356 24.7372C65.7756 24.7372 67.9234 22.5894 67.9234 19.9494C67.9234 15.9889 71.1451 12.7672 75.1047 12.7672Z" fill="#1D97D5"/>
</svg>
