<svg width="217" height="49" viewBox="0 0 217 49" fill="none" xmlns="http://www.w3.org/2000/svg">
<rect width="217" height="36" rx="10" transform="matrix(-1 0 0 1 217 0)" fill="white"/>
<path d="M11.515 48.492L22.0352 36.0591H11.515V48.492Z" fill="white"/>
<path d="M17.1666 18.688H15.1226V23H13.7506V13.2H15.1226V17.456H17.1946L20.2746 13.2H21.7726L18.2726 17.946L21.9406 23H20.3446L17.1666 18.688ZM25.8933 15.51C26.92 15.51 27.704 15.762 28.2453 16.266C28.796 16.77 29.0713 17.5213 29.0713 18.52V23H27.7973V22.02C27.5733 22.3653 27.2513 22.6313 26.8313 22.818C26.4206 22.9953 25.9306 23.084 25.3613 23.084C24.5306 23.084 23.8633 22.8833 23.3593 22.482C22.8646 22.0807 22.6173 21.5533 22.6173 20.9C22.6173 20.2467 22.8553 19.724 23.3313 19.332C23.8073 18.9307 24.5633 18.73 25.5993 18.73H27.7273V18.464C27.7273 17.8853 27.5593 17.442 27.2233 17.134C26.8873 16.826 26.3926 16.672 25.7393 16.672C25.3006 16.672 24.8713 16.7467 24.4513 16.896C24.0313 17.036 23.6766 17.2273 23.3873 17.47L22.8273 16.462C23.21 16.154 23.6673 15.9207 24.1993 15.762C24.7313 15.594 25.296 15.51 25.8933 15.51ZM25.5853 22.048C26.0986 22.048 26.542 21.936 26.9153 21.712C27.2886 21.4787 27.5593 21.152 27.7273 20.732V19.696H25.6553C24.5166 19.696 23.9473 20.0787 23.9473 20.844C23.9473 21.2173 24.092 21.5113 24.3813 21.726C24.6706 21.9407 25.072 22.048 25.5853 22.048ZM34.3755 19.864H32.8355V23H31.4915V15.58H32.8355V18.716H34.4035L36.8115 15.58H38.2535L35.4395 19.15L38.4495 23H36.8675L34.3755 19.864ZM50.2404 15.58L46.6424 23.742C46.3251 24.498 45.9517 25.03 45.5224 25.338C45.1024 25.646 44.5937 25.8 43.9964 25.8C43.6324 25.8 43.2777 25.7393 42.9324 25.618C42.5964 25.506 42.3164 25.338 42.0924 25.114L42.6664 24.106C43.0491 24.47 43.4924 24.652 43.9964 24.652C44.3231 24.652 44.5937 24.5633 44.8084 24.386C45.0324 24.218 45.2331 23.924 45.4104 23.504L45.6484 22.986L42.3724 15.58H43.7724L46.3624 21.516L48.9244 15.58H50.2404ZM57.59 15.58V23H56.246V16.756H53.054L52.97 18.408C52.9233 19.4067 52.8346 20.242 52.704 20.914C52.5733 21.5767 52.3586 22.1087 52.06 22.51C51.7613 22.9113 51.346 23.112 50.814 23.112C50.5713 23.112 50.296 23.07 49.988 22.986L50.072 21.852C50.1933 21.88 50.3053 21.894 50.408 21.894C50.7813 21.894 51.0613 21.7307 51.248 21.404C51.4346 21.0773 51.556 20.69 51.612 20.242C51.668 19.794 51.7193 19.1547 51.766 18.324L51.892 15.58H57.59ZM63.3667 23.084C62.6294 23.084 61.9667 22.9207 61.3787 22.594C60.7907 22.2673 60.3287 21.8193 59.9927 21.25C59.6661 20.6713 59.5027 20.018 59.5027 19.29C59.5027 18.562 59.6661 17.9133 59.9927 17.344C60.3287 16.7653 60.7907 16.3173 61.3787 16C61.9667 15.6733 62.6294 15.51 63.3667 15.51C64.1041 15.51 64.7621 15.6733 65.3407 16C65.9287 16.3173 66.3861 16.7653 66.7127 17.344C67.0487 17.9133 67.2167 18.562 67.2167 19.29C67.2167 20.018 67.0487 20.6713 66.7127 21.25C66.3861 21.8193 65.9287 22.2673 65.3407 22.594C64.7621 22.9207 64.1041 23.084 63.3667 23.084ZM63.3667 21.908C63.8427 21.908 64.2674 21.8007 64.6407 21.586C65.0234 21.362 65.3221 21.054 65.5367 20.662C65.7514 20.2607 65.8587 19.8033 65.8587 19.29C65.8587 18.7767 65.7514 18.324 65.5367 17.932C65.3221 17.5307 65.0234 17.2227 64.6407 17.008C64.2674 16.7933 63.8427 16.686 63.3667 16.686C62.8907 16.686 62.4614 16.7933 62.0787 17.008C61.7054 17.2227 61.4067 17.5307 61.1827 17.932C60.9681 18.324 60.8607 18.7767 60.8607 19.29C60.8607 19.8033 60.9681 20.2607 61.1827 20.662C61.4067 21.054 61.7054 21.362 62.0787 21.586C62.4614 21.8007 62.8907 21.908 63.3667 21.908ZM75.6594 19.864H74.2174V23H72.8734V19.864H71.4314L69.3874 23H67.7914L70.3394 19.164L67.9874 15.58H69.4154L71.4174 18.716H72.8734V15.58H74.2174V18.716H75.6734L77.6754 15.58H79.1174L76.7654 19.178L79.3134 23H77.7174L75.6594 19.864ZM80.7922 15.58H82.1362V20.984L86.6862 15.58H87.9042V23H86.5602V17.596L82.0242 23H80.7922V15.58ZM96.0429 16.756H93.3269V23H91.9829V16.756H89.2669V15.58H96.0429V16.756ZM100.847 18.1C101.79 18.1093 102.509 18.324 103.003 18.744C103.498 19.164 103.745 19.7567 103.745 20.522C103.745 21.3247 103.475 21.9453 102.933 22.384C102.401 22.8133 101.636 23.0233 100.637 23.014L97.4172 23V15.58H98.7612V18.086L100.847 18.1ZM100.525 21.992C101.132 22.0013 101.589 21.88 101.897 21.628C102.215 21.376 102.373 21.0027 102.373 20.508C102.373 20.0227 102.219 19.668 101.911 19.444C101.613 19.22 101.151 19.1033 100.525 19.094L98.7612 19.066V21.978L100.525 21.992ZM108.704 23.084C107.948 23.084 107.271 22.9207 106.674 22.594C106.086 22.2673 105.624 21.8193 105.288 21.25C104.952 20.6713 104.784 20.018 104.784 19.29C104.784 18.562 104.952 17.9133 105.288 17.344C105.624 16.7653 106.086 16.3173 106.674 16C107.271 15.6733 107.948 15.51 108.704 15.51C109.376 15.51 109.973 15.6453 110.496 15.916C111.028 16.1867 111.439 16.5787 111.728 17.092L110.706 17.75C110.473 17.3953 110.183 17.1293 109.838 16.952C109.493 16.7747 109.11 16.686 108.69 16.686C108.205 16.686 107.766 16.7933 107.374 17.008C106.991 17.2227 106.688 17.5307 106.464 17.932C106.249 18.324 106.142 18.7767 106.142 19.29C106.142 19.8127 106.249 20.2747 106.464 20.676C106.688 21.068 106.991 21.3713 107.374 21.586C107.766 21.8007 108.205 21.908 108.69 21.908C109.11 21.908 109.493 21.8193 109.838 21.642C110.183 21.4647 110.473 21.1987 110.706 20.844L111.728 21.488C111.439 22.0013 111.028 22.398 110.496 22.678C109.973 22.9487 109.376 23.084 108.704 23.084ZM119.186 15.58V23H117.982V20.648H115.826H115.672L114.048 23H112.606L114.412 20.466C113.852 20.298 113.422 20.0227 113.124 19.64C112.825 19.248 112.676 18.7627 112.676 18.184C112.676 17.3347 112.965 16.6907 113.544 16.252C114.122 15.804 114.92 15.58 115.938 15.58H119.186ZM114.048 18.226C114.048 18.7207 114.202 19.0893 114.51 19.332C114.827 19.5653 115.298 19.682 115.924 19.682H117.982V16.756H115.98C114.692 16.756 114.048 17.246 114.048 18.226ZM130.622 19.15C131.583 19.3927 132.064 19.9947 132.064 20.956C132.064 21.6093 131.816 22.1133 131.322 22.468C130.836 22.8227 130.108 23 129.138 23H125.568V15.58H129.012C129.889 15.58 130.575 15.748 131.07 16.084C131.564 16.4107 131.812 16.8773 131.812 17.484C131.812 17.876 131.704 18.2167 131.49 18.506C131.284 18.786 130.995 19.0007 130.622 19.15ZM126.884 18.772H128.9C129.413 18.772 129.8 18.6787 130.062 18.492C130.332 18.3053 130.468 18.0347 130.468 17.68C130.468 16.9707 129.945 16.616 128.9 16.616H126.884V18.772ZM129.04 21.964C129.6 21.964 130.02 21.8753 130.3 21.698C130.58 21.5207 130.72 21.2453 130.72 20.872C130.72 20.4893 130.589 20.2047 130.328 20.018C130.076 19.8313 129.674 19.738 129.124 19.738H126.884V21.964H129.04ZM143.457 16.756H140.741V23H139.397V16.756H136.681V15.58H143.457V16.756ZM147.477 15.51C148.504 15.51 149.288 15.762 149.829 16.266C150.38 16.77 150.655 17.5213 150.655 18.52V23H149.381V22.02C149.157 22.3653 148.835 22.6313 148.415 22.818C148.005 22.9953 147.515 23.084 146.945 23.084C146.115 23.084 145.447 22.8833 144.943 22.482C144.449 22.0807 144.201 21.5533 144.201 20.9C144.201 20.2467 144.439 19.724 144.915 19.332C145.391 18.9307 146.147 18.73 147.183 18.73H149.311V18.464C149.311 17.8853 149.143 17.442 148.807 17.134C148.471 16.826 147.977 16.672 147.323 16.672C146.885 16.672 146.455 16.7467 146.035 16.896C145.615 17.036 145.261 17.2273 144.971 17.47L144.411 16.462C144.794 16.154 145.251 15.9207 145.783 15.762C146.315 15.594 146.88 15.51 147.477 15.51ZM147.169 22.048C147.683 22.048 148.126 21.936 148.499 21.712C148.873 21.4787 149.143 21.152 149.311 20.732V19.696H147.239C146.101 19.696 145.531 20.0787 145.531 20.844C145.531 21.2173 145.676 21.5113 145.965 21.726C146.255 21.9407 146.656 22.048 147.169 22.048ZM153.075 15.58H154.419V20.984L158.969 15.58H160.187V23H158.843V17.596L154.307 23H153.075V15.58ZM156.547 14.614C155.857 14.614 155.32 14.4507 154.937 14.124C154.555 13.788 154.359 13.3073 154.349 12.682H155.259C155.269 13.0273 155.385 13.3073 155.609 13.522C155.843 13.7273 156.151 13.83 156.533 13.83C156.916 13.83 157.224 13.7273 157.457 13.522C157.691 13.3073 157.812 13.0273 157.821 12.682H158.759C158.75 13.3073 158.549 13.788 158.157 14.124C157.765 14.4507 157.229 14.614 156.547 14.614ZM171.35 15.58V23H170.132V17.582L167.36 22.16H166.772L164.028 17.568V23H162.796V15.58H164.182L167.094 20.592L170.09 15.58H171.35ZM173.966 15.58H175.31V20.984L179.86 15.58H181.078V23H179.734V17.596L175.198 23H173.966V15.58ZM183.687 15.58H185.031V18.73H189.259V15.58H190.603V23H189.259V19.892H185.031V23H183.687V15.58ZM198.676 16.756H194.56V23H193.216V15.58H198.676V16.756ZM201.942 19.906C201.942 19.5327 202.003 19.206 202.124 18.926C202.255 18.6367 202.409 18.394 202.586 18.198C202.773 18.002 203.015 17.7687 203.314 17.498C203.687 17.1713 203.963 16.8913 204.14 16.658C204.317 16.4153 204.406 16.126 204.406 15.79C204.406 15.3327 204.229 14.9687 203.874 14.698C203.519 14.418 203.029 14.278 202.404 14.278C201.312 14.278 200.477 14.6467 199.898 15.384L198.876 14.656C199.268 14.152 199.767 13.7647 200.374 13.494C200.99 13.2233 201.699 13.088 202.502 13.088C203.519 13.088 204.327 13.312 204.924 13.76C205.521 14.1987 205.82 14.8053 205.82 15.58C205.82 15.9627 205.755 16.3033 205.624 16.602C205.503 16.8913 205.353 17.134 205.176 17.33C204.999 17.526 204.761 17.7593 204.462 18.03C204.079 18.3753 203.795 18.6787 203.608 18.94C203.431 19.2013 203.342 19.5233 203.342 19.906H201.942ZM202.656 23.084C202.395 23.084 202.175 23 201.998 22.832C201.83 22.6547 201.746 22.44 201.746 22.188C201.746 21.936 201.83 21.726 201.998 21.558C202.175 21.3807 202.395 21.292 202.656 21.292C202.917 21.292 203.132 21.3807 203.3 21.558C203.468 21.726 203.552 21.936 203.552 22.188C203.552 22.44 203.463 22.6547 203.286 22.832C203.118 23 202.908 23.084 202.656 23.084Z" fill="#0F1528"/>
</svg>
