<svg width="274" height="49" viewBox="0 0 274 49" fill="none" xmlns="http://www.w3.org/2000/svg">
<rect width="274" height="36" rx="10" fill="#1D97D5"/>
<path d="M263.497 48.1023L252.977 35.6694H263.497V48.1023Z" fill="#1D97D5"/>
<path d="M18.0012 14.2V24H16.6292V15.418H10.9452V24H9.5592V14.2H18.0012ZM24.0113 24.084C23.2739 24.084 22.6113 23.9207 22.0233 23.594C21.4353 23.2673 20.9733 22.8193 20.6373 22.25C20.3106 21.6713 20.1473 21.018 20.1473 20.29C20.1473 19.562 20.3106 18.9133 20.6373 18.344C20.9733 17.7653 21.4353 17.3173 22.0233 17C22.6113 16.6733 23.2739 16.51 24.0113 16.51C24.7486 16.51 25.4066 16.6733 25.9853 17C26.5733 17.3173 27.0306 17.7653 27.3573 18.344C27.6933 18.9133 27.8613 19.562 27.8613 20.29C27.8613 21.018 27.6933 21.6713 27.3573 22.25C27.0306 22.8193 26.5733 23.2673 25.9853 23.594C25.4066 23.9207 24.7486 24.084 24.0113 24.084ZM24.0113 22.908C24.4873 22.908 24.9119 22.8007 25.2853 22.586C25.6679 22.362 25.9666 22.054 26.1813 21.662C26.3959 21.2607 26.5033 20.8033 26.5033 20.29C26.5033 19.7767 26.3959 19.324 26.1813 18.932C25.9666 18.5307 25.6679 18.2227 25.2853 18.008C24.9119 17.7933 24.4873 17.686 24.0113 17.686C23.5353 17.686 23.1059 17.7933 22.7233 18.008C22.3499 18.2227 22.0513 18.5307 21.8273 18.932C21.6126 19.324 21.5053 19.7767 21.5053 20.29C21.5053 20.8033 21.6126 21.2607 21.8273 21.662C22.0513 22.054 22.3499 22.362 22.7233 22.586C23.1059 22.8007 23.5353 22.908 24.0113 22.908ZM36.4458 20.864H34.9058V24H33.5618V16.58H34.9058V19.716H36.4738L38.8818 16.58H40.3238L37.5098 20.15L40.5198 24H38.9378L36.4458 20.864ZM44.4382 16.51C45.4649 16.51 46.2489 16.762 46.7902 17.266C47.3409 17.77 47.6162 18.5213 47.6162 19.52V24H46.3422V23.02C46.1182 23.3653 45.7962 23.6313 45.3762 23.818C44.9656 23.9953 44.4756 24.084 43.9062 24.084C43.0756 24.084 42.4082 23.8833 41.9042 23.482C41.4096 23.0807 41.1622 22.5533 41.1622 21.9C41.1622 21.2467 41.4002 20.724 41.8762 20.332C42.3522 19.9307 43.1082 19.73 44.1442 19.73H46.2722V19.464C46.2722 18.8853 46.1042 18.442 45.7682 18.134C45.4322 17.826 44.9376 17.672 44.2842 17.672C43.8456 17.672 43.4162 17.7467 42.9962 17.896C42.5762 18.036 42.2216 18.2273 41.9322 18.47L41.3722 17.462C41.7549 17.154 42.2122 16.9207 42.7442 16.762C43.2762 16.594 43.8409 16.51 44.4382 16.51ZM44.1302 23.048C44.6436 23.048 45.0869 22.936 45.4602 22.712C45.8336 22.4787 46.1042 22.152 46.2722 21.732V20.696H44.2002C43.0616 20.696 42.4922 21.0787 42.4922 21.844C42.4922 22.2173 42.6369 22.5113 42.9262 22.726C43.2156 22.9407 43.6169 23.048 44.1302 23.048ZM52.9204 20.864H51.3804V24H50.0364V16.58H51.3804V19.716H52.9484L55.3564 16.58H56.7984L53.9844 20.15L56.9944 24H55.4124L52.9204 20.864ZM61.3355 24.084C60.5981 24.084 59.9355 23.9207 59.3475 23.594C58.7595 23.2673 58.2975 22.8193 57.9615 22.25C57.6348 21.6713 57.4715 21.018 57.4715 20.29C57.4715 19.562 57.6348 18.9133 57.9615 18.344C58.2975 17.7653 58.7595 17.3173 59.3475 17C59.9355 16.6733 60.5981 16.51 61.3355 16.51C62.0728 16.51 62.7308 16.6733 63.3095 17C63.8975 17.3173 64.3548 17.7653 64.6815 18.344C65.0175 18.9133 65.1855 19.562 65.1855 20.29C65.1855 21.018 65.0175 21.6713 64.6815 22.25C64.3548 22.8193 63.8975 23.2673 63.3095 23.594C62.7308 23.9207 62.0728 24.084 61.3355 24.084ZM61.3355 22.908C61.8115 22.908 62.2361 22.8007 62.6095 22.586C62.9921 22.362 63.2908 22.054 63.5055 21.662C63.7201 21.2607 63.8275 20.8033 63.8275 20.29C63.8275 19.7767 63.7201 19.324 63.5055 18.932C63.2908 18.5307 62.9921 18.2227 62.6095 18.008C62.2361 17.7933 61.8115 17.686 61.3355 17.686C60.8595 17.686 60.4301 17.7933 60.0475 18.008C59.6741 18.2227 59.3755 18.5307 59.1515 18.932C58.9368 19.324 58.8295 19.7767 58.8295 20.29C58.8295 20.8033 58.9368 21.2607 59.1515 21.662C59.3755 22.054 59.6741 22.362 60.0475 22.586C60.4301 22.8007 60.8595 22.908 61.3355 22.908ZM67.1262 16.58H68.4702V21.984L73.0202 16.58H74.2382V24H72.8942V18.596L68.3582 24H67.1262V16.58ZM70.5982 15.614C69.9076 15.614 69.3709 15.4507 68.9882 15.124C68.6056 14.788 68.4096 14.3073 68.4002 13.682H69.3102C69.3196 14.0273 69.4362 14.3073 69.6602 14.522C69.8936 14.7273 70.2016 14.83 70.5842 14.83C70.9669 14.83 71.2749 14.7273 71.5082 14.522C71.7416 14.3073 71.8629 14.0273 71.8722 13.682H72.8102C72.8009 14.3073 72.6002 14.788 72.2082 15.124C71.8162 15.4507 71.2796 15.614 70.5982 15.614ZM83.8407 24.084C83.0847 24.084 82.408 23.9207 81.8107 23.594C81.2227 23.2673 80.7607 22.8193 80.4247 22.25C80.0887 21.6713 79.9207 21.018 79.9207 20.29C79.9207 19.562 80.0887 18.9133 80.4247 18.344C80.7607 17.7653 81.2227 17.3173 81.8107 17C82.408 16.6733 83.0847 16.51 83.8407 16.51C84.5127 16.51 85.11 16.6453 85.6327 16.916C86.1647 17.1867 86.5754 17.5787 86.8647 18.092L85.8427 18.75C85.6094 18.3953 85.32 18.1293 84.9747 17.952C84.6294 17.7747 84.2467 17.686 83.8267 17.686C83.3414 17.686 82.9027 17.7933 82.5107 18.008C82.128 18.2227 81.8247 18.5307 81.6007 18.932C81.386 19.324 81.2787 19.7767 81.2787 20.29C81.2787 20.8127 81.386 21.2747 81.6007 21.676C81.8247 22.068 82.128 22.3713 82.5107 22.586C82.9027 22.8007 83.3414 22.908 83.8267 22.908C84.2467 22.908 84.6294 22.8193 84.9747 22.642C85.32 22.4647 85.6094 22.1987 85.8427 21.844L86.8647 22.488C86.5754 23.0013 86.1647 23.398 85.6327 23.678C85.11 23.9487 84.5127 24.084 83.8407 24.084ZM94.039 17.756H91.323V24H89.979V17.756H87.263V16.58H94.039V17.756ZM99.3473 16.51C100.066 16.51 100.71 16.6687 101.279 16.986C101.849 17.3033 102.292 17.7467 102.609 18.316C102.936 18.8853 103.099 19.5433 103.099 20.29C103.099 21.0367 102.936 21.6993 102.609 22.278C102.292 22.8473 101.849 23.2907 101.279 23.608C100.71 23.9253 100.066 24.084 99.3473 24.084C98.8153 24.084 98.3253 23.9813 97.8773 23.776C97.4387 23.5707 97.0653 23.272 96.7573 22.88V26.716H95.4133V16.58H96.7013V17.756C97 17.3453 97.378 17.0373 97.8353 16.832C98.2927 16.6173 98.7967 16.51 99.3473 16.51ZM99.2353 22.908C99.7113 22.908 100.136 22.8007 100.509 22.586C100.892 22.362 101.191 22.054 101.405 21.662C101.629 21.2607 101.741 20.8033 101.741 20.29C101.741 19.7767 101.629 19.324 101.405 18.932C101.191 18.5307 100.892 18.2227 100.509 18.008C100.136 17.7933 99.7113 17.686 99.2353 17.686C98.7687 17.686 98.344 17.798 97.9613 18.022C97.588 18.2367 97.2893 18.54 97.0653 18.932C96.8507 19.324 96.7433 19.7767 96.7433 20.29C96.7433 20.8033 96.8507 21.2607 97.0653 21.662C97.28 22.054 97.5787 22.362 97.9613 22.586C98.344 22.8007 98.7687 22.908 99.2353 22.908ZM111.469 16.58L107.871 24.742C107.554 25.498 107.18 26.03 106.751 26.338C106.331 26.646 105.822 26.8 105.225 26.8C104.861 26.8 104.506 26.7393 104.161 26.618C103.825 26.506 103.545 26.338 103.321 26.114L103.895 25.106C104.278 25.47 104.721 25.652 105.225 25.652C105.552 25.652 105.822 25.5633 106.037 25.386C106.261 25.218 106.462 24.924 106.639 24.504L106.877 23.986L103.601 16.58H105.001L107.591 22.516L110.153 16.58H111.469ZM115.729 20.864H114.189V24H112.845V16.58H114.189V19.716H115.757L118.165 16.58H119.607L116.793 20.15L119.803 24H118.221L115.729 20.864ZM126.619 17.756H123.903V24H122.559V17.756H119.843V16.58H126.619V17.756ZM134.656 16.58L131.058 24.742C130.741 25.498 130.368 26.03 129.938 26.338C129.518 26.646 129.01 26.8 128.412 26.8C128.048 26.8 127.694 26.7393 127.348 26.618C127.012 26.506 126.732 26.338 126.508 26.114L127.082 25.106C127.465 25.47 127.908 25.652 128.412 25.652C128.739 25.652 129.01 25.5633 129.224 25.386C129.448 25.218 129.649 24.924 129.826 24.504L130.064 23.986L126.788 16.58H128.188L130.778 22.516L133.34 16.58H134.656ZM139.966 16.51C140.685 16.51 141.329 16.6687 141.898 16.986C142.468 17.3033 142.911 17.7467 143.228 18.316C143.555 18.8853 143.718 19.5433 143.718 20.29C143.718 21.0367 143.555 21.6993 143.228 22.278C142.911 22.8473 142.468 23.2907 141.898 23.608C141.329 23.9253 140.685 24.084 139.966 24.084C139.434 24.084 138.944 23.9813 138.496 23.776C138.058 23.5707 137.684 23.272 137.376 22.88V26.716H136.032V16.58H137.32V17.756C137.619 17.3453 137.997 17.0373 138.454 16.832C138.912 16.6173 139.416 16.51 139.966 16.51ZM139.854 22.908C140.33 22.908 140.755 22.8007 141.128 22.586C141.511 22.362 141.81 22.054 142.024 21.662C142.248 21.2607 142.36 20.8033 142.36 20.29C142.36 19.7767 142.248 19.324 142.024 18.932C141.81 18.5307 141.511 18.2227 141.128 18.008C140.755 17.7933 140.33 17.686 139.854 17.686C139.388 17.686 138.963 17.798 138.58 18.022C138.207 18.2367 137.908 18.54 137.684 18.932C137.47 19.324 137.362 19.7767 137.362 20.29C137.362 20.8033 137.47 21.2607 137.684 21.662C137.899 22.054 138.198 22.362 138.58 22.586C138.963 22.8007 139.388 22.908 139.854 22.908ZM152.377 20.332C152.377 20.4347 152.368 20.57 152.349 20.738H146.329C146.413 21.3913 146.698 21.9187 147.183 22.32C147.678 22.712 148.289 22.908 149.017 22.908C149.904 22.908 150.618 22.6093 151.159 22.012L151.901 22.88C151.565 23.272 151.145 23.5707 150.641 23.776C150.146 23.9813 149.591 24.084 148.975 24.084C148.191 24.084 147.496 23.9253 146.889 23.608C146.282 23.2813 145.811 22.8287 145.475 22.25C145.148 21.6713 144.985 21.018 144.985 20.29C144.985 19.5713 145.144 18.9227 145.461 18.344C145.788 17.7653 146.231 17.3173 146.791 17C147.36 16.6733 148 16.51 148.709 16.51C149.418 16.51 150.048 16.6733 150.599 17C151.159 17.3173 151.593 17.7653 151.901 18.344C152.218 18.9227 152.377 19.5853 152.377 20.332ZM148.709 17.644C148.065 17.644 147.524 17.84 147.085 18.232C146.656 18.624 146.404 19.1373 146.329 19.772H151.089C151.014 19.1467 150.758 18.638 150.319 18.246C149.89 17.8447 149.353 17.644 148.709 17.644ZM164.592 16.58V24H163.248V17.756H160.056L159.972 19.408C159.925 20.4067 159.837 21.242 159.706 21.914C159.575 22.5767 159.361 23.1087 159.062 23.51C158.763 23.9113 158.348 24.112 157.816 24.112C157.573 24.112 157.298 24.07 156.99 23.986L157.074 22.852C157.195 22.88 157.307 22.894 157.41 22.894C157.783 22.894 158.063 22.7307 158.25 22.404C158.437 22.0773 158.558 21.69 158.614 21.242C158.67 20.794 158.721 20.1547 158.768 19.324L158.894 16.58H164.592ZM173.813 16.58L170.215 24.742C169.897 25.498 169.524 26.03 169.095 26.338C168.675 26.646 168.166 26.8 167.569 26.8C167.205 26.8 166.85 26.7393 166.505 26.618C166.169 26.506 165.889 26.338 165.665 26.114L166.239 25.106C166.621 25.47 167.065 25.652 167.569 25.652C167.895 25.652 168.166 25.5633 168.381 25.386C168.605 25.218 168.805 24.924 168.983 24.504L169.221 23.986L165.945 16.58H167.345L169.935 22.516L172.497 16.58H173.813ZM181.111 16.58V24H179.767V21.004C178.964 21.3773 178.166 21.564 177.373 21.564C176.449 21.564 175.735 21.3493 175.231 20.92C174.727 20.4907 174.475 19.8467 174.475 18.988V16.58H175.819V18.904C175.819 19.4173 175.977 19.8047 176.295 20.066C176.621 20.3273 177.074 20.458 177.653 20.458C178.306 20.458 179.011 20.2947 179.767 19.968V16.58H181.111ZM194.29 16.58V24H183.72V16.58H185.064V22.824H188.34V16.58H189.684V22.824H192.946V16.58H194.29ZM203.606 20.332C203.606 20.4347 203.596 20.57 203.578 20.738H197.558C197.642 21.3913 197.926 21.9187 198.412 22.32C198.906 22.712 199.518 22.908 200.246 22.908C201.132 22.908 201.846 22.6093 202.388 22.012L203.13 22.88C202.794 23.272 202.374 23.5707 201.87 23.776C201.375 23.9813 200.82 24.084 200.204 24.084C199.42 24.084 198.724 23.9253 198.118 23.608C197.511 23.2813 197.04 22.8287 196.704 22.25C196.377 21.6713 196.214 21.018 196.214 20.29C196.214 19.5713 196.372 18.9227 196.69 18.344C197.016 17.7653 197.46 17.3173 198.02 17C198.589 16.6733 199.228 16.51 199.938 16.51C200.647 16.51 201.277 16.6733 201.828 17C202.388 17.3173 202.822 17.7653 203.13 18.344C203.447 18.9227 203.606 19.5853 203.606 20.332ZM199.938 17.644C199.294 17.644 198.752 17.84 198.314 18.232C197.884 18.624 197.632 19.1373 197.558 19.772H202.318C202.243 19.1467 201.986 18.638 201.548 18.246C201.118 17.8447 200.582 17.644 199.938 17.644ZM216.324 16.58V24H214.98V17.756H210.794V24H209.45V16.58H216.324ZM218.925 16.58H220.269V21.984L224.819 16.58H226.037V24H224.693V18.596L220.157 24H218.925V16.58ZM231.88 24.084C231.124 24.084 230.447 23.9207 229.85 23.594C229.262 23.2673 228.8 22.8193 228.464 22.25C228.128 21.6713 227.96 21.018 227.96 20.29C227.96 19.562 228.128 18.9133 228.464 18.344C228.8 17.7653 229.262 17.3173 229.85 17C230.447 16.6733 231.124 16.51 231.88 16.51C232.552 16.51 233.149 16.6453 233.672 16.916C234.204 17.1867 234.614 17.5787 234.904 18.092L233.882 18.75C233.648 18.3953 233.359 18.1293 233.014 17.952C232.668 17.7747 232.286 17.686 231.866 17.686C231.38 17.686 230.942 17.7933 230.55 18.008C230.167 18.2227 229.864 18.5307 229.64 18.932C229.425 19.324 229.318 19.7767 229.318 20.29C229.318 20.8127 229.425 21.2747 229.64 21.676C229.864 22.068 230.167 22.3713 230.55 22.586C230.942 22.8007 231.38 22.908 231.866 22.908C232.286 22.908 232.668 22.8193 233.014 22.642C233.359 22.4647 233.648 22.1987 233.882 21.844L234.904 22.488C234.614 23.0013 234.204 23.398 233.672 23.678C233.149 23.9487 232.552 24.084 231.88 24.084ZM239.29 16.51C240.316 16.51 241.1 16.762 241.642 17.266C242.192 17.77 242.468 18.5213 242.468 19.52V24H241.194V23.02C240.97 23.3653 240.648 23.6313 240.228 23.818C239.817 23.9953 239.327 24.084 238.758 24.084C237.927 24.084 237.26 23.8833 236.756 23.482C236.261 23.0807 236.014 22.5533 236.014 21.9C236.014 21.2467 236.252 20.724 236.728 20.332C237.204 19.9307 237.96 19.73 238.996 19.73H241.124V19.464C241.124 18.8853 240.956 18.442 240.62 18.134C240.284 17.826 239.789 17.672 239.136 17.672C238.697 17.672 238.268 17.7467 237.848 17.896C237.428 18.036 237.073 18.2273 236.784 18.47L236.224 17.462C236.606 17.154 237.064 16.9207 237.596 16.762C238.128 16.594 238.692 16.51 239.29 16.51ZM238.982 23.048C239.495 23.048 239.938 22.936 240.312 22.712C240.685 22.4787 240.956 22.152 241.124 21.732V20.696H239.052C237.913 20.696 237.344 21.0787 237.344 21.844C237.344 22.2173 237.488 22.5113 237.778 22.726C238.067 22.9407 238.468 23.048 238.982 23.048ZM250.418 17.756H247.702V24H246.358V17.756H243.642V16.58H250.418V17.756ZM255.222 19.1C256.165 19.1093 256.884 19.324 257.378 19.744C257.873 20.164 258.12 20.7567 258.12 21.522C258.12 22.3247 257.85 22.9453 257.308 23.384C256.776 23.8133 256.011 24.0233 255.012 24.014L251.792 24V16.58H253.136V19.086L255.222 19.1ZM254.9 22.992C255.507 23.0013 255.964 22.88 256.272 22.628C256.59 22.376 256.748 22.0027 256.748 21.508C256.748 21.0227 256.594 20.668 256.286 20.444C255.988 20.22 255.526 20.1033 254.9 20.094L253.136 20.066V22.978L254.9 22.992ZM261.133 20.906C261.133 20.5327 261.194 20.206 261.315 19.926C261.446 19.6367 261.6 19.394 261.777 19.198C261.964 19.002 262.207 18.7687 262.505 18.498C262.879 18.1713 263.154 17.8913 263.331 17.658C263.509 17.4153 263.597 17.126 263.597 16.79C263.597 16.3327 263.42 15.9687 263.065 15.698C262.711 15.418 262.221 15.278 261.595 15.278C260.503 15.278 259.668 15.6467 259.089 16.384L258.067 15.656C258.459 15.152 258.959 14.7647 259.565 14.494C260.181 14.2233 260.891 14.088 261.693 14.088C262.711 14.088 263.518 14.312 264.115 14.76C264.713 15.1987 265.011 15.8053 265.011 16.58C265.011 16.9627 264.946 17.3033 264.815 17.602C264.694 17.8913 264.545 18.134 264.367 18.33C264.19 18.526 263.952 18.7593 263.653 19.03C263.271 19.3753 262.986 19.6787 262.799 19.94C262.622 20.2013 262.533 20.5233 262.533 20.906H261.133ZM261.847 24.084C261.586 24.084 261.367 24 261.189 23.832C261.021 23.6547 260.937 23.44 260.937 23.188C260.937 22.936 261.021 22.726 261.189 22.558C261.367 22.3807 261.586 22.292 261.847 22.292C262.109 22.292 262.323 22.3807 262.491 22.558C262.659 22.726 262.743 22.936 262.743 23.188C262.743 23.44 262.655 23.6547 262.477 23.832C262.309 24 262.099 24.084 261.847 24.084Z" fill="white"/>
</svg>
