<svg width="269" height="49" viewBox="0 0 269 49" fill="none" xmlns="http://www.w3.org/2000/svg">
<rect width="269" height="36" rx="10" transform="matrix(-1 0 0 1 269 0)" fill="white"/>
<path d="M10.5189 48.7122L21.0391 36.2793H10.5189V48.7122Z" fill="white"/>
<path d="M19.7827 15.419H14.7427L14.7567 24.001H13.3707V14.201H19.7967L19.7827 15.419ZM26.599 22.825V25.723H25.339V24.001H19.137V25.723H17.863V22.825H18.255C18.731 22.797 19.0576 22.461 19.235 21.817C19.4123 21.173 19.5336 20.263 19.599 19.087L19.711 16.581H25.465V22.825H26.599ZM20.831 19.185C20.7936 20.1183 20.7143 20.893 20.593 21.509C20.481 22.1156 20.271 22.5543 19.963 22.825H24.121V17.757H20.901L20.831 19.185ZM35.0559 20.333C35.0559 20.4356 35.0465 20.571 35.0279 20.739H29.0079C29.0919 21.3923 29.3765 21.9196 29.8619 22.321C30.3565 22.713 30.9679 22.909 31.6959 22.909C32.5825 22.909 33.2965 22.6103 33.8379 22.013L34.5799 22.881C34.2439 23.273 33.8239 23.5716 33.3199 23.777C32.8252 23.9823 32.2699 24.085 31.6539 24.085C30.8699 24.085 30.1745 23.9263 29.5679 23.609C28.9612 23.2823 28.4899 22.8296 28.1539 22.251C27.8272 21.6723 27.6639 21.019 27.6639 20.291C27.6639 19.5723 27.8225 18.9236 28.1399 18.345C28.4665 17.7663 28.9099 17.3183 29.4699 17.001C30.0392 16.6743 30.6785 16.511 31.3879 16.511C32.0972 16.511 32.7272 16.6743 33.2779 17.001C33.8379 17.3183 34.2719 17.7663 34.5799 18.345C34.8972 18.9236 35.0559 19.5863 35.0559 20.333ZM31.3879 17.645C30.7439 17.645 30.2025 17.841 29.7639 18.233C29.3345 18.625 29.0825 19.1383 29.0079 19.773H33.7679C33.6932 19.1476 33.4365 18.639 32.9979 18.247C32.5685 17.8456 32.0319 17.645 31.3879 17.645ZM40.9006 16.581H42.2446V21.985L46.7946 16.581H48.0126V24.001H46.6686V18.597L42.1326 24.001H40.9006V16.581ZM53.8553 24.085C53.0993 24.085 52.4227 23.9216 51.8253 23.595C51.2373 23.2683 50.7753 22.8203 50.4393 22.251C50.1033 21.6723 49.9353 21.019 49.9353 20.291C49.9353 19.563 50.1033 18.9143 50.4393 18.345C50.7753 17.7663 51.2373 17.3183 51.8253 17.001C52.4227 16.6743 53.0993 16.511 53.8553 16.511C54.5273 16.511 55.1247 16.6463 55.6473 16.917C56.1793 17.1876 56.59 17.5796 56.8793 18.093L55.8573 18.751C55.624 18.3963 55.3347 18.1303 54.9893 17.953C54.644 17.7756 54.2613 17.687 53.8413 17.687C53.356 17.687 52.9173 17.7943 52.5253 18.009C52.1427 18.2236 51.8393 18.5316 51.6153 18.933C51.4007 19.325 51.2933 19.7776 51.2933 20.291C51.2933 20.8136 51.4007 21.2756 51.6153 21.677C51.8393 22.069 52.1427 22.3723 52.5253 22.587C52.9173 22.8016 53.356 22.909 53.8413 22.909C54.2613 22.909 54.644 22.8203 54.9893 22.643C55.3347 22.4656 55.624 22.1996 55.8573 21.845L56.8793 22.489C56.59 23.0023 56.1793 23.399 55.6473 23.679C55.1247 23.9496 54.5273 24.085 53.8553 24.085ZM61.5034 20.865H59.9634V24.001H58.6194V16.581H59.9634V19.717H61.5314L63.9394 16.581H65.3814L62.5674 20.151L65.5774 24.001H63.9954L61.5034 20.865ZM69.4959 16.511C70.5225 16.511 71.3065 16.763 71.8479 17.267C72.3985 17.771 72.6739 18.5223 72.6739 19.521V24.001H71.3999V23.021C71.1759 23.3663 70.8539 23.6323 70.4339 23.819C70.0232 23.9963 69.5332 24.085 68.9639 24.085C68.1332 24.085 67.4659 23.8843 66.9619 23.483C66.4672 23.0816 66.2199 22.5543 66.2199 21.901C66.2199 21.2476 66.4579 20.725 66.9339 20.333C67.4099 19.9316 68.1659 19.731 69.2019 19.731H71.3299V19.465C71.3299 18.8863 71.1619 18.443 70.8259 18.135C70.4899 17.827 69.9952 17.673 69.3419 17.673C68.9032 17.673 68.4739 17.7476 68.0539 17.897C67.6339 18.037 67.2792 18.2283 66.9899 18.471L66.4299 17.463C66.8125 17.155 67.2699 16.9216 67.8019 16.763C68.3339 16.595 68.8985 16.511 69.4959 16.511ZM69.1879 23.049C69.7012 23.049 70.1445 22.937 70.5179 22.713C70.8912 22.4796 71.1619 22.153 71.3299 21.733V20.697H69.2579C68.1192 20.697 67.5499 21.0796 67.5499 21.845C67.5499 22.2183 67.6945 22.5123 67.9839 22.727C68.2732 22.9416 68.6745 23.049 69.1879 23.049ZM80.624 17.757H77.908V24.001H76.564V17.757H73.848V16.581H80.624V17.757ZM85.4283 19.101C86.371 19.1103 87.0896 19.325 87.5843 19.745C88.079 20.165 88.3263 20.7576 88.3263 21.523C88.3263 22.3256 88.0556 22.9463 87.5143 23.385C86.9823 23.8143 86.217 24.0243 85.2183 24.015L81.9983 24.001V16.581H83.3423V19.087L85.4283 19.101ZM85.1063 22.993C85.713 23.0023 86.1703 22.881 86.4783 22.629C86.7956 22.377 86.9543 22.0036 86.9543 21.509C86.9543 21.0236 86.8003 20.669 86.4923 20.445C86.1936 20.221 85.7316 20.1043 85.1063 20.095L83.3423 20.067V22.979L85.1063 22.993ZM97.0448 24.085C96.2888 24.085 95.6121 23.9216 95.0148 23.595C94.4268 23.2683 93.9648 22.8203 93.6288 22.251C93.2928 21.6723 93.1248 21.019 93.1248 20.291C93.1248 19.563 93.2928 18.9143 93.6288 18.345C93.9648 17.7663 94.4268 17.3183 95.0148 17.001C95.6121 16.6743 96.2888 16.511 97.0448 16.511C97.7168 16.511 98.3141 16.6463 98.8368 16.917C99.3688 17.1876 99.7795 17.5796 100.069 18.093L99.0468 18.751C98.8135 18.3963 98.5241 18.1303 98.1788 17.953C97.8335 17.7756 97.4508 17.687 97.0308 17.687C96.5455 17.687 96.1068 17.7943 95.7148 18.009C95.3321 18.2236 95.0288 18.5316 94.8048 18.933C94.5901 19.325 94.4828 19.7776 94.4828 20.291C94.4828 20.8136 94.5901 21.2756 94.8048 21.677C95.0288 22.069 95.3321 22.3723 95.7148 22.587C96.1068 22.8016 96.5455 22.909 97.0308 22.909C97.4508 22.909 97.8335 22.8203 98.1788 22.643C98.5241 22.4656 98.8135 22.1996 99.0468 21.845L100.069 22.489C99.7795 23.0023 99.3688 23.399 98.8368 23.679C98.3141 23.9496 97.7168 24.085 97.0448 24.085ZM107.96 16.581V24.001H106.616V17.757H103.424L103.34 19.409C103.293 20.4076 103.205 21.243 103.074 21.915C102.943 22.5776 102.729 23.1096 102.43 23.511C102.131 23.9123 101.716 24.113 101.184 24.113C100.941 24.113 100.666 24.071 100.358 23.987L100.442 22.853C100.563 22.881 100.675 22.895 100.778 22.895C101.151 22.895 101.431 22.7316 101.618 22.405C101.805 22.0783 101.926 21.691 101.982 21.243C102.038 20.795 102.089 20.1556 102.136 19.325L102.262 16.581H107.96ZM113.737 24.085C113 24.085 112.337 23.9216 111.749 23.595C111.161 23.2683 110.699 22.8203 110.363 22.251C110.036 21.6723 109.873 21.019 109.873 20.291C109.873 19.563 110.036 18.9143 110.363 18.345C110.699 17.7663 111.161 17.3183 111.749 17.001C112.337 16.6743 113 16.511 113.737 16.511C114.474 16.511 115.132 16.6743 115.711 17.001C116.299 17.3183 116.756 17.7663 117.083 18.345C117.419 18.9143 117.587 19.563 117.587 20.291C117.587 21.019 117.419 21.6723 117.083 22.251C116.756 22.8203 116.299 23.2683 115.711 23.595C115.132 23.9216 114.474 24.085 113.737 24.085ZM113.737 22.909C114.213 22.909 114.638 22.8016 115.011 22.587C115.394 22.363 115.692 22.055 115.907 21.663C116.122 21.2616 116.229 20.8043 116.229 20.291C116.229 19.7776 116.122 19.325 115.907 18.933C115.692 18.5316 115.394 18.2236 115.011 18.009C114.638 17.7943 114.213 17.687 113.737 17.687C113.261 17.687 112.832 17.7943 112.449 18.009C112.076 18.2236 111.777 18.5316 111.553 18.933C111.338 19.325 111.231 19.7776 111.231 20.291C111.231 20.8043 111.338 21.2616 111.553 21.663C111.777 22.055 112.076 22.363 112.449 22.587C112.832 22.8016 113.261 22.909 113.737 22.909ZM126.029 20.865H124.587V24.001H123.243V20.865H121.801L119.757 24.001H118.161L120.709 20.165L118.357 16.581H119.785L121.787 19.717H123.243V16.581H124.587V19.717H126.043L128.045 16.581H129.487L127.135 20.179L129.683 24.001H128.087L126.029 20.865ZM131.162 16.581H132.506V19.731H136.734V16.581H138.078V24.001H136.734V20.893H132.506V24.001H131.162V16.581ZM147.314 16.581L143.716 24.743C143.398 25.499 143.025 26.031 142.596 26.339C142.176 26.647 141.667 26.801 141.07 26.801C140.706 26.801 140.351 26.7403 140.006 26.619C139.67 26.507 139.39 26.339 139.166 26.115L139.74 25.107C140.122 25.471 140.566 25.653 141.07 25.653C141.396 25.653 141.667 25.5643 141.882 25.387C142.106 25.219 142.306 24.925 142.484 24.505L142.722 23.987L139.446 16.581H140.846L143.436 22.517L145.998 16.581H147.314ZM155.256 16.511C155.974 16.511 156.618 16.6743 157.188 17.001C157.757 17.3183 158.205 17.7663 158.532 18.345C158.858 18.9143 159.022 19.563 159.022 20.291C159.022 21.019 158.858 21.6723 158.532 22.251C158.205 22.8203 157.757 23.2683 157.188 23.595C156.618 23.9216 155.974 24.085 155.256 24.085C154.602 24.085 154.01 23.9496 153.478 23.679C152.946 23.4083 152.507 23.0303 152.162 22.545C151.826 22.0503 151.616 21.4903 151.532 20.865H150.034V24.001H148.69V16.581H150.034V19.619H151.546C151.639 19.003 151.854 18.4616 152.19 17.995C152.535 17.519 152.969 17.155 153.492 16.903C154.024 16.6416 154.612 16.511 155.256 16.511ZM155.256 22.909C155.713 22.909 156.124 22.8016 156.488 22.587C156.861 22.3723 157.155 22.069 157.37 21.677C157.584 21.2756 157.692 20.8136 157.692 20.291C157.692 19.7776 157.584 19.325 157.37 18.933C157.155 18.5316 156.861 18.2236 156.488 18.009C156.124 17.7943 155.713 17.687 155.256 17.687C154.798 17.687 154.383 17.7943 154.01 18.009C153.636 18.2236 153.342 18.5316 153.128 18.933C152.922 19.325 152.82 19.7776 152.82 20.291C152.82 20.8136 152.922 21.2756 153.128 21.677C153.342 22.069 153.636 22.3723 154.01 22.587C154.383 22.8016 154.798 22.909 155.256 22.909ZM170.173 17.757H166.057V24.001H164.713V16.581H170.173V17.757ZM175.483 16.511C176.202 16.511 176.846 16.6696 177.415 16.987C177.984 17.3043 178.428 17.7476 178.745 18.317C179.072 18.8863 179.235 19.5443 179.235 20.291C179.235 21.0376 179.072 21.7003 178.745 22.279C178.428 22.8483 177.984 23.2916 177.415 23.609C176.846 23.9263 176.202 24.085 175.483 24.085C174.951 24.085 174.461 23.9823 174.013 23.777C173.574 23.5716 173.201 23.273 172.893 22.881V26.717H171.549V16.581H172.837V17.757C173.136 17.3463 173.514 17.0383 173.971 16.833C174.428 16.6183 174.932 16.511 175.483 16.511ZM175.371 22.909C175.847 22.909 176.272 22.8016 176.645 22.587C177.028 22.363 177.326 22.055 177.541 21.663C177.765 21.2616 177.877 20.8043 177.877 20.291C177.877 19.7776 177.765 19.325 177.541 18.933C177.326 18.5316 177.028 18.2236 176.645 18.009C176.272 17.7943 175.847 17.687 175.371 17.687C174.904 17.687 174.48 17.799 174.097 18.023C173.724 18.2376 173.425 18.541 173.201 18.933C172.986 19.325 172.879 19.7776 172.879 20.291C172.879 20.8043 172.986 21.2616 173.201 21.663C173.416 22.055 173.714 22.363 174.097 22.587C174.48 22.8016 174.904 22.909 175.371 22.909ZM183.765 16.511C184.792 16.511 185.576 16.763 186.117 17.267C186.668 17.771 186.943 18.5223 186.943 19.521V24.001H185.669V23.021C185.445 23.3663 185.123 23.6323 184.703 23.819C184.293 23.9963 183.803 24.085 183.233 24.085C182.403 24.085 181.735 23.8843 181.231 23.483C180.737 23.0816 180.489 22.5543 180.489 21.901C180.489 21.2476 180.727 20.725 181.203 20.333C181.679 19.9316 182.435 19.731 183.471 19.731H185.599V19.465C185.599 18.8863 185.431 18.443 185.095 18.135C184.759 17.827 184.265 17.673 183.611 17.673C183.173 17.673 182.743 17.7476 182.323 17.897C181.903 18.037 181.549 18.2283 181.259 18.471L180.699 17.463C181.082 17.155 181.539 16.9216 182.071 16.763C182.603 16.595 183.168 16.511 183.765 16.511ZM183.457 23.049C183.971 23.049 184.414 22.937 184.787 22.713C185.161 22.4796 185.431 22.153 185.599 21.733V20.697H183.527C182.389 20.697 181.819 21.0796 181.819 21.845C181.819 22.2183 181.964 22.5123 182.253 22.727C182.543 22.9416 182.944 23.049 183.457 23.049ZM197.918 16.581V24.001H196.7V18.583L193.928 23.161H193.34L190.596 18.569V24.001H189.364V16.581H190.75L193.662 21.593L196.658 16.581H197.918ZM209.087 16.581V24.001H207.869V18.583L205.097 23.161H204.509L201.765 18.569V24.001H200.533V16.581H201.919L204.831 21.593L207.827 16.581H209.087ZM214.349 16.511C215.376 16.511 216.16 16.763 216.701 17.267C217.252 17.771 217.527 18.5223 217.527 19.521V24.001H216.253V23.021C216.029 23.3663 215.707 23.6323 215.287 23.819C214.877 23.9963 214.387 24.085 213.817 24.085C212.987 24.085 212.319 23.8843 211.815 23.483C211.321 23.0816 211.073 22.5543 211.073 21.901C211.073 21.2476 211.311 20.725 211.787 20.333C212.263 19.9316 213.019 19.731 214.055 19.731H216.183V19.465C216.183 18.8863 216.015 18.443 215.679 18.135C215.343 17.827 214.849 17.673 214.195 17.673C213.757 17.673 213.327 17.7476 212.907 17.897C212.487 18.037 212.133 18.2283 211.843 18.471L211.283 17.463C211.666 17.155 212.123 16.9216 212.655 16.763C213.187 16.595 213.752 16.511 214.349 16.511ZM214.041 23.049C214.555 23.049 214.998 22.937 215.371 22.713C215.745 22.4796 216.015 22.153 216.183 21.733V20.697H214.111C212.973 20.697 212.403 21.0796 212.403 21.845C212.403 22.2183 212.548 22.5123 212.837 22.727C213.127 22.9416 213.528 23.049 214.041 23.049ZM225.478 17.757H222.762V24.001H221.418V17.757H218.702V16.581H225.478V17.757ZM226.852 16.581H228.196V21.985L232.746 16.581H233.964V24.001H232.62V18.597L228.084 24.001H226.852V16.581ZM239.457 20.865H237.917V24.001H236.573V16.581H237.917V19.717H239.485L241.893 16.581H243.335L240.521 20.151L243.531 24.001H241.949L239.457 20.865ZM251.138 16.581L247.54 24.743C247.223 25.499 246.849 26.031 246.42 26.339C246 26.647 245.491 26.801 244.894 26.801C244.53 26.801 244.175 26.7403 243.83 26.619C243.494 26.507 243.214 26.339 242.99 26.115L243.564 25.107C243.947 25.471 244.39 25.653 244.894 25.653C245.221 25.653 245.491 25.5643 245.706 25.387C245.93 25.219 246.131 24.925 246.308 24.505L246.546 23.987L243.27 16.581H244.67L247.26 22.517L249.822 16.581H251.138ZM254.869 20.907C254.869 20.5336 254.929 20.207 255.051 19.927C255.181 19.6376 255.335 19.395 255.513 19.199C255.699 19.003 255.942 18.7696 256.241 18.499C256.614 18.1723 256.889 17.8923 257.067 17.659C257.244 17.4163 257.333 17.127 257.333 16.791C257.333 16.3336 257.155 15.9696 256.801 15.699C256.446 15.419 255.956 15.279 255.331 15.279C254.239 15.279 253.403 15.6476 252.825 16.385L251.803 15.657C252.195 15.153 252.694 14.7656 253.301 14.495C253.917 14.2243 254.626 14.089 255.429 14.089C256.446 14.089 257.253 14.313 257.851 14.761C258.448 15.1996 258.747 15.8063 258.747 16.581C258.747 16.9636 258.681 17.3043 258.551 17.603C258.429 17.8923 258.28 18.135 258.103 18.331C257.925 18.527 257.687 18.7603 257.389 19.031C257.006 19.3763 256.721 19.6796 256.535 19.941C256.357 20.2023 256.269 20.5243 256.269 20.907H254.869ZM255.583 24.085C255.321 24.085 255.102 24.001 254.925 23.833C254.757 23.6556 254.673 23.441 254.673 23.189C254.673 22.937 254.757 22.727 254.925 22.559C255.102 22.3816 255.321 22.293 255.583 22.293C255.844 22.293 256.059 22.3816 256.227 22.559C256.395 22.727 256.479 22.937 256.479 23.189C256.479 23.441 256.39 23.6556 256.213 23.833C256.045 24.001 255.835 24.085 255.583 24.085Z" fill="#0F1528"/>
</svg>
