<svg width="224" height="49" viewBox="0 0 224 49" fill="none" xmlns="http://www.w3.org/2000/svg">
<rect width="224" height="36" rx="10" fill="#1D97D5"/>
<path d="M214.458 48.3201L203.938 35.8872H214.458V48.3201Z" fill="#1D97D5"/>
<path d="M14.5465 18.688H12.5025V23H11.1305V13.2H12.5025V17.456H14.5745L17.6545 13.2H19.1525L15.6525 17.946L19.3205 23H17.7245L14.5465 18.688ZM23.2732 15.51C24.2999 15.51 25.0839 15.762 25.6252 16.266C26.1759 16.77 26.4512 17.5213 26.4512 18.52V23H25.1772V22.02C24.9532 22.3653 24.6312 22.6313 24.2112 22.818C23.8005 22.9953 23.3105 23.084 22.7412 23.084C21.9105 23.084 21.2432 22.8833 20.7392 22.482C20.2445 22.0807 19.9972 21.5533 19.9972 20.9C19.9972 20.2467 20.2352 19.724 20.7112 19.332C21.1872 18.9307 21.9432 18.73 22.9792 18.73H25.1072V18.464C25.1072 17.8853 24.9392 17.442 24.6032 17.134C24.2672 16.826 23.7725 16.672 23.1192 16.672C22.6805 16.672 22.2512 16.7467 21.8312 16.896C21.4112 17.036 21.0565 17.2273 20.7672 17.47L20.2072 16.462C20.5899 16.154 21.0472 15.9207 21.5792 15.762C22.1112 15.594 22.6759 15.51 23.2732 15.51ZM22.9652 22.048C23.4785 22.048 23.9219 21.936 24.2952 21.712C24.6685 21.4787 24.9392 21.152 25.1072 20.732V19.696H23.0352C21.8965 19.696 21.3272 20.0787 21.3272 20.844C21.3272 21.2173 21.4719 21.5113 21.7612 21.726C22.0505 21.9407 22.4519 22.048 22.9652 22.048ZM31.7553 19.864H30.2153V23H28.8713V15.58H30.2153V18.716H31.7833L34.1913 15.58H35.6333L32.8193 19.15L35.8293 23H34.2473L31.7553 19.864ZM39.7478 15.51C40.7745 15.51 41.5585 15.762 42.0998 16.266C42.6505 16.77 42.9258 17.5213 42.9258 18.52V23H41.6518V22.02C41.4278 22.3653 41.1058 22.6313 40.6858 22.818C40.2751 22.9953 39.7851 23.084 39.2158 23.084C38.3851 23.084 37.7178 22.8833 37.2138 22.482C36.7191 22.0807 36.4718 21.5533 36.4718 20.9C36.4718 20.2467 36.7098 19.724 37.1858 19.332C37.6618 18.9307 38.4178 18.73 39.4538 18.73H41.5818V18.464C41.5818 17.8853 41.4138 17.442 41.0778 17.134C40.7418 16.826 40.2471 16.672 39.5938 16.672C39.1551 16.672 38.7258 16.7467 38.3058 16.896C37.8858 17.036 37.5311 17.2273 37.2418 17.47L36.6818 16.462C37.0645 16.154 37.5218 15.9207 38.0538 15.762C38.5858 15.594 39.1505 15.51 39.7478 15.51ZM39.4398 22.048C39.9531 22.048 40.3965 21.936 40.7698 21.712C41.1431 21.4787 41.4138 21.152 41.5818 20.732V19.696H39.5098C38.3711 19.696 37.8018 20.0787 37.8018 20.844C37.8018 21.2173 37.9465 21.5113 38.2358 21.726C38.5251 21.9407 38.9265 22.048 39.4398 22.048ZM51.2959 15.58V23H50.0919V20.648H47.9359H47.7819L46.1579 23H44.7159L46.5219 20.466C45.9619 20.298 45.5326 20.0227 45.2339 19.64C44.9353 19.248 44.7859 18.7627 44.7859 18.184C44.7859 17.3347 45.0753 16.6907 45.6539 16.252C46.2326 15.804 47.0306 15.58 48.0479 15.58H51.2959ZM46.1579 18.226C46.1579 18.7207 46.3119 19.0893 46.6199 19.332C46.9373 19.5653 47.4086 19.682 48.0339 19.682H50.0919V16.756H48.0899C46.8019 16.756 46.1579 17.246 46.1579 18.226ZM64.048 15.58V23H62.704V16.756H59.512L59.428 18.408C59.3813 19.4067 59.2926 20.242 59.162 20.914C59.0313 21.5767 58.8166 22.1087 58.518 22.51C58.2193 22.9113 57.804 23.112 57.272 23.112C57.0293 23.112 56.754 23.07 56.446 22.986L56.53 21.852C56.6513 21.88 56.7633 21.894 56.866 21.894C57.2393 21.894 57.5193 21.7307 57.706 21.404C57.8926 21.0773 58.014 20.69 58.07 20.242C58.126 19.794 58.1773 19.1547 58.224 18.324L58.35 15.58H64.048ZM73.3527 19.332C73.3527 19.4347 73.3434 19.57 73.3247 19.738H67.3047C67.3887 20.3913 67.6734 20.9187 68.1587 21.32C68.6534 21.712 69.2647 21.908 69.9927 21.908C70.8794 21.908 71.5934 21.6093 72.1347 21.012L72.8767 21.88C72.5407 22.272 72.1207 22.5707 71.6167 22.776C71.1221 22.9813 70.5667 23.084 69.9507 23.084C69.1667 23.084 68.4714 22.9253 67.8647 22.608C67.2581 22.2813 66.7867 21.8287 66.4507 21.25C66.1241 20.6713 65.9607 20.018 65.9607 19.29C65.9607 18.5713 66.1194 17.9227 66.4367 17.344C66.7634 16.7653 67.2067 16.3173 67.7667 16C68.3361 15.6733 68.9754 15.51 69.6847 15.51C70.3941 15.51 71.0241 15.6733 71.5747 16C72.1347 16.3173 72.5687 16.7653 72.8767 17.344C73.1941 17.9227 73.3527 18.5853 73.3527 19.332ZM69.6847 16.644C69.0407 16.644 68.4994 16.84 68.0607 17.232C67.6314 17.624 67.3794 18.1373 67.3047 18.772H72.0647C71.9901 18.1467 71.7334 17.638 71.2947 17.246C70.8654 16.8447 70.3287 16.644 69.6847 16.644ZM78.3217 19.864H76.7817V23H75.4377V15.58H76.7817V18.716H78.3497L80.7577 15.58H82.1997L79.3857 19.15L82.3957 23H80.8137L78.3217 19.864ZM86.7928 23.084C86.0368 23.084 85.3602 22.9207 84.7628 22.594C84.1748 22.2673 83.7128 21.8193 83.3768 21.25C83.0408 20.6713 82.8728 20.018 82.8728 19.29C82.8728 18.562 83.0408 17.9133 83.3768 17.344C83.7128 16.7653 84.1748 16.3173 84.7628 16C85.3602 15.6733 86.0368 15.51 86.7928 15.51C87.4648 15.51 88.0622 15.6453 88.5848 15.916C89.1168 16.1867 89.5275 16.5787 89.8168 17.092L88.7948 17.75C88.5615 17.3953 88.2722 17.1293 87.9268 16.952C87.5815 16.7747 87.1988 16.686 86.7788 16.686C86.2935 16.686 85.8548 16.7933 85.4628 17.008C85.0802 17.2227 84.7768 17.5307 84.5528 17.932C84.3382 18.324 84.2308 18.7767 84.2308 19.29C84.2308 19.8127 84.3382 20.2747 84.5528 20.676C84.7768 21.068 85.0802 21.3713 85.4628 21.586C85.8548 21.8007 86.2935 21.908 86.7788 21.908C87.1988 21.908 87.5815 21.8193 87.9268 21.642C88.2722 21.4647 88.5615 21.1987 88.7948 20.844L89.8168 21.488C89.5275 22.0013 89.1168 22.398 88.5848 22.678C88.0622 22.9487 87.4648 23.084 86.7928 23.084ZM91.5569 15.58H92.9009V20.984L97.4509 15.58H98.6689V23H97.3249V17.596L92.7889 23H91.5569V15.58ZM104.162 19.864H102.622V23H101.278V15.58H102.622V18.716H104.19L106.598 15.58H108.04L105.226 19.15L108.236 23H106.654L104.162 19.864ZM112.154 15.51C113.181 15.51 113.965 15.762 114.506 16.266C115.057 16.77 115.332 17.5213 115.332 18.52V23H114.058V22.02C113.834 22.3653 113.512 22.6313 113.092 22.818C112.681 22.9953 112.191 23.084 111.622 23.084C110.791 23.084 110.124 22.8833 109.62 22.482C109.125 22.0807 108.878 21.5533 108.878 20.9C108.878 20.2467 109.116 19.724 109.592 19.332C110.068 18.9307 110.824 18.73 111.86 18.73H113.988V18.464C113.988 17.8853 113.82 17.442 113.484 17.134C113.148 16.826 112.653 16.672 112 16.672C111.561 16.672 111.132 16.7467 110.712 16.896C110.292 17.036 109.937 17.2273 109.648 17.47L109.088 16.462C109.471 16.154 109.928 15.9207 110.46 15.762C110.992 15.594 111.557 15.51 112.154 15.51ZM111.846 22.048C112.359 22.048 112.803 21.936 113.176 21.712C113.549 21.4787 113.82 21.152 113.988 20.732V19.696H111.916C110.777 19.696 110.208 20.0787 110.208 20.844C110.208 21.2173 110.353 21.5113 110.642 21.726C110.931 21.9407 111.333 22.048 111.846 22.048ZM121.512 15.58H122.856V18.73H127.084V15.58H128.428V23H127.084V19.892H122.856V23H121.512V15.58ZM137.663 15.58L134.065 23.742C133.748 24.498 133.375 25.03 132.945 25.338C132.525 25.646 132.017 25.8 131.419 25.8C131.055 25.8 130.701 25.7393 130.355 25.618C130.019 25.506 129.739 25.338 129.515 25.114L130.089 24.106C130.472 24.47 130.915 24.652 131.419 24.652C131.746 24.652 132.017 24.5633 132.231 24.386C132.455 24.218 132.656 23.924 132.833 23.504L133.071 22.986L129.795 15.58H131.195L133.785 21.516L136.347 15.58H137.663ZM145.363 19.864H143.921V23H142.577V19.864H141.135L139.091 23H137.495L140.043 19.164L137.691 15.58H139.119L141.121 18.716H142.577V15.58H143.921V18.716H145.377L147.379 15.58H148.821L146.469 19.178L149.017 23H147.421L145.363 19.864ZM150.496 15.58H151.84V18.73H156.068V15.58H157.412V23H156.068V19.892H151.84V23H150.496V15.58ZM162.672 15.51C163.698 15.51 164.482 15.762 165.024 16.266C165.574 16.77 165.85 17.5213 165.85 18.52V23H164.576V22.02C164.352 22.3653 164.03 22.6313 163.61 22.818C163.199 22.9953 162.709 23.084 162.14 23.084C161.309 23.084 160.642 22.8833 160.138 22.482C159.643 22.0807 159.396 21.5533 159.396 20.9C159.396 20.2467 159.634 19.724 160.11 19.332C160.586 18.9307 161.342 18.73 162.378 18.73H164.506V18.464C164.506 17.8853 164.338 17.442 164.002 17.134C163.666 16.826 163.171 16.672 162.518 16.672C162.079 16.672 161.65 16.7467 161.23 16.896C160.81 17.036 160.455 17.2273 160.166 17.47L159.606 16.462C159.988 16.154 160.446 15.9207 160.978 15.762C161.51 15.594 162.074 15.51 162.672 15.51ZM162.364 22.048C162.877 22.048 163.32 21.936 163.694 21.712C164.067 21.4787 164.338 21.152 164.506 20.732V19.696H162.434C161.295 19.696 160.726 20.0787 160.726 20.844C160.726 21.2173 160.87 21.5113 161.16 21.726C161.449 21.9407 161.85 22.048 162.364 22.048ZM172.03 15.58H173.374V18.73H177.602V15.58H178.946V23H177.602V19.892H173.374V23H172.03V15.58ZM184.205 15.51C185.232 15.51 186.016 15.762 186.557 16.266C187.108 16.77 187.383 17.5213 187.383 18.52V23H186.109V22.02C185.885 22.3653 185.563 22.6313 185.143 22.818C184.732 22.9953 184.242 23.084 183.673 23.084C182.842 23.084 182.175 22.8833 181.671 22.482C181.176 22.0807 180.929 21.5533 180.929 20.9C180.929 20.2467 181.167 19.724 181.643 19.332C182.119 18.9307 182.875 18.73 183.911 18.73H186.039V18.464C186.039 17.8853 185.871 17.442 185.535 17.134C185.199 16.826 184.704 16.672 184.051 16.672C183.612 16.672 183.183 16.7467 182.763 16.896C182.343 17.036 181.988 17.2273 181.699 17.47L181.139 16.462C181.522 16.154 181.979 15.9207 182.511 15.762C183.043 15.594 183.608 15.51 184.205 15.51ZM183.897 22.048C184.41 22.048 184.854 21.936 185.227 21.712C185.6 21.4787 185.871 21.152 186.039 20.732V19.696H183.967C182.828 19.696 182.259 20.0787 182.259 20.844C182.259 21.2173 182.404 21.5113 182.693 21.726C182.982 21.9407 183.384 22.048 183.897 22.048ZM200.073 13.2V14.152L196.111 23H194.627L198.505 14.418H194.025V16.168H192.681V13.2H200.073ZM207.141 18.66H204.593V21.166H203.417V18.66H200.869V17.554H203.417V15.034H204.593V17.554H207.141V18.66ZM210.711 19.906C210.711 19.5327 210.771 19.206 210.893 18.926C211.023 18.6367 211.177 18.394 211.355 18.198C211.541 18.002 211.784 17.7687 212.083 17.498C212.456 17.1713 212.731 16.8913 212.909 16.658C213.086 16.4153 213.175 16.126 213.175 15.79C213.175 15.3327 212.997 14.9687 212.643 14.698C212.288 14.418 211.798 14.278 211.173 14.278C210.081 14.278 209.245 14.6467 208.667 15.384L207.645 14.656C208.037 14.152 208.536 13.7647 209.143 13.494C209.759 13.2233 210.468 13.088 211.271 13.088C212.288 13.088 213.095 13.312 213.693 13.76C214.29 14.1987 214.589 14.8053 214.589 15.58C214.589 15.9627 214.523 16.3033 214.393 16.602C214.271 16.8913 214.122 17.134 213.945 17.33C213.767 17.526 213.529 17.7593 213.231 18.03C212.848 18.3753 212.563 18.6787 212.377 18.94C212.199 19.2013 212.111 19.5233 212.111 19.906H210.711ZM211.425 23.084C211.163 23.084 210.944 23 210.767 22.832C210.599 22.6547 210.515 22.44 210.515 22.188C210.515 21.936 210.599 21.726 210.767 21.558C210.944 21.3807 211.163 21.292 211.425 21.292C211.686 21.292 211.901 21.3807 212.069 21.558C212.237 21.726 212.321 21.936 212.321 22.188C212.321 22.44 212.232 22.6547 212.055 22.832C211.887 23 211.677 23.084 211.425 23.084Z" fill="white"/>
</svg>
