<svg width="311" height="74" viewBox="0 0 311 74" fill="none" xmlns="http://www.w3.org/2000/svg">
<rect width="306" height="61" rx="10" transform="matrix(-1 0 0 1 306 0)" fill="white"/>
<path d="M12.2494 73.4329L22.7695 61H12.2494V73.4329Z" fill="white"/>
<path d="M22.612 26L22.598 18.86L19.056 24.81H18.412L14.87 18.902V26H13.526V16.2H14.674L18.762 23.088L22.794 16.2H23.942L23.956 26H22.612ZM29.9605 26.084C29.2231 26.084 28.5605 25.9207 27.9725 25.594C27.3845 25.2673 26.9225 24.8193 26.5865 24.25C26.2598 23.6713 26.0965 23.018 26.0965 22.29C26.0965 21.562 26.2598 20.9133 26.5865 20.344C26.9225 19.7653 27.3845 19.3173 27.9725 19C28.5605 18.6733 29.2231 18.51 29.9605 18.51C30.6978 18.51 31.3558 18.6733 31.9345 19C32.5225 19.3173 32.9798 19.7653 33.3065 20.344C33.6425 20.9133 33.8105 21.562 33.8105 22.29C33.8105 23.018 33.6425 23.6713 33.3065 24.25C32.9798 24.8193 32.5225 25.2673 31.9345 25.594C31.3558 25.9207 30.6978 26.084 29.9605 26.084ZM29.9605 24.908C30.4365 24.908 30.8611 24.8007 31.2345 24.586C31.6171 24.362 31.9158 24.054 32.1305 23.662C32.3451 23.2607 32.4525 22.8033 32.4525 22.29C32.4525 21.7767 32.3451 21.324 32.1305 20.932C31.9158 20.5307 31.6171 20.2227 31.2345 20.008C30.8611 19.7933 30.4365 19.686 29.9605 19.686C29.4845 19.686 29.0551 19.7933 28.6725 20.008C28.2991 20.2227 28.0005 20.5307 27.7765 20.932C27.5618 21.324 27.4545 21.7767 27.4545 22.29C27.4545 22.8033 27.5618 23.2607 27.7765 23.662C28.0005 24.054 28.2991 24.362 28.6725 24.586C29.0551 24.8007 29.4845 24.908 29.9605 24.908ZM35.7512 18.58H37.0952V23.984L41.6452 18.58H42.8632V26H41.5192V20.596L36.9832 26H35.7512V18.58ZM51.8777 18.51C52.9044 18.51 53.6884 18.762 54.2297 19.266C54.7804 19.77 55.0557 20.5213 55.0557 21.52V26H53.7817V25.02C53.5577 25.3653 53.2357 25.6313 52.8157 25.818C52.405 25.9953 51.915 26.084 51.3457 26.084C50.515 26.084 49.8477 25.8833 49.3437 25.482C48.849 25.0807 48.6017 24.5533 48.6017 23.9C48.6017 23.2467 48.8397 22.724 49.3157 22.332C49.7917 21.9307 50.5477 21.73 51.5837 21.73H53.7117V21.464C53.7117 20.8853 53.5437 20.442 53.2077 20.134C52.8717 19.826 52.377 19.672 51.7237 19.672C51.285 19.672 50.8557 19.7467 50.4357 19.896C50.0157 20.036 49.661 20.2273 49.3717 20.47L48.8117 19.462C49.1944 19.154 49.6517 18.9207 50.1837 18.762C50.7157 18.594 51.2804 18.51 51.8777 18.51ZM51.5697 25.048C52.083 25.048 52.5264 24.936 52.8997 24.712C53.273 24.4787 53.5437 24.152 53.7117 23.732V22.696H51.6397C50.501 22.696 49.9317 23.0787 49.9317 23.844C49.9317 24.2173 50.0764 24.5113 50.3657 24.726C50.655 24.9407 51.0564 25.048 51.5697 25.048ZM61.4098 18.51C62.1285 18.51 62.7725 18.6687 63.3418 18.986C63.9112 19.3033 64.3545 19.7467 64.6718 20.316C64.9985 20.8853 65.1618 21.5433 65.1618 22.29C65.1618 23.0367 64.9985 23.6993 64.6718 24.278C64.3545 24.8473 63.9112 25.2907 63.3418 25.608C62.7725 25.9253 62.1285 26.084 61.4098 26.084C60.8778 26.084 60.3878 25.9813 59.9398 25.776C59.5012 25.5707 59.1278 25.272 58.8198 24.88V28.716H57.4758V18.58H58.7638V19.756C59.0625 19.3453 59.4405 19.0373 59.8978 18.832C60.3552 18.6173 60.8592 18.51 61.4098 18.51ZM61.2978 24.908C61.7738 24.908 62.1985 24.8007 62.5718 24.586C62.9545 24.362 63.2532 24.054 63.4678 23.662C63.6918 23.2607 63.8038 22.8033 63.8038 22.29C63.8038 21.7767 63.6918 21.324 63.4678 20.932C63.2532 20.5307 62.9545 20.2227 62.5718 20.008C62.1985 19.7933 61.7738 19.686 61.2978 19.686C60.8312 19.686 60.4065 19.798 60.0238 20.022C59.6505 20.2367 59.3518 20.54 59.1278 20.932C58.9132 21.324 58.8058 21.7767 58.8058 22.29C58.8058 22.8033 58.9132 23.2607 59.1278 23.662C59.3425 24.054 59.6412 24.362 60.0238 24.586C60.4065 24.8007 60.8312 24.908 61.2978 24.908ZM72.5745 19.756H68.4585V26H67.1145V18.58H72.5745V19.756ZM80.6135 18.58L77.0155 26.742C76.6981 27.498 76.3248 28.03 75.8955 28.338C75.4755 28.646 74.9668 28.8 74.3695 28.8C74.0055 28.8 73.6508 28.7393 73.3055 28.618C72.9695 28.506 72.6895 28.338 72.4655 28.114L73.0395 27.106C73.4221 27.47 73.8655 27.652 74.3695 27.652C74.6961 27.652 74.9668 27.5633 75.1815 27.386C75.4055 27.218 75.6061 26.924 75.7835 26.504L76.0215 25.986L72.7455 18.58H74.1455L76.7355 24.516L79.2975 18.58H80.6135ZM90.5435 18.58V26H89.3255V20.582L86.5535 25.16H85.9655L83.2215 20.568V26H81.9895V18.58H83.3755L86.2875 23.592L89.2835 18.58H90.5435ZM99.8654 22.332C99.8654 22.4347 99.8561 22.57 99.8374 22.738H93.8174C93.9014 23.3913 94.1861 23.9187 94.6714 24.32C95.1661 24.712 95.7774 24.908 96.5054 24.908C97.3921 24.908 98.1061 24.6093 98.6474 24.012L99.3894 24.88C99.0534 25.272 98.6334 25.5707 98.1294 25.776C97.6348 25.9813 97.0794 26.084 96.4634 26.084C95.6794 26.084 94.9841 25.9253 94.3774 25.608C93.7708 25.2813 93.2994 24.8287 92.9634 24.25C92.6368 23.6713 92.4734 23.018 92.4734 22.29C92.4734 21.5713 92.6321 20.9227 92.9494 20.344C93.2761 19.7653 93.7194 19.3173 94.2794 19C94.8488 18.6733 95.4881 18.51 96.1974 18.51C96.9068 18.51 97.5368 18.6733 98.0874 19C98.6474 19.3173 99.0814 19.7653 99.3894 20.344C99.7068 20.9227 99.8654 21.5853 99.8654 22.332ZM96.1974 19.644C95.5534 19.644 95.0121 19.84 94.5734 20.232C94.1441 20.624 93.8921 21.1373 93.8174 21.772H98.5774C98.5028 21.1467 98.2461 20.638 97.8074 20.246C97.3781 19.8447 96.8414 19.644 96.1974 19.644ZM101.95 18.58H103.294V21.73H107.522V18.58H108.866V26H107.522V22.892H103.294V26H101.95V18.58ZM117.01 19.756H114.294V26H112.95V19.756H110.234V18.58H117.01V19.756ZM121.73 21.1C122.663 21.1093 123.377 21.324 123.872 21.744C124.367 22.164 124.614 22.7567 124.614 23.522C124.614 24.3247 124.343 24.9453 123.802 25.384C123.27 25.8133 122.505 26.0233 121.506 26.014L118.384 26V18.58H119.728V21.086L121.73 21.1ZM125.72 18.58H127.064V26H125.72V18.58ZM121.408 24.992C122.015 25.0013 122.472 24.88 122.78 24.628C123.097 24.376 123.256 24.0027 123.256 23.508C123.256 23.0227 123.102 22.668 122.794 22.444C122.486 22.22 122.024 22.1033 121.408 22.094L119.728 22.066V24.978L121.408 24.992ZM133.437 18.58H134.781V21.73H139.009V18.58H140.353V26H139.009V22.892H134.781V26H133.437V18.58ZM149.672 22.332C149.672 22.4347 149.663 22.57 149.644 22.738H143.624C143.708 23.3913 143.993 23.9187 144.478 24.32C144.973 24.712 145.584 24.908 146.312 24.908C147.199 24.908 147.913 24.6093 148.454 24.012L149.196 24.88C148.86 25.272 148.44 25.5707 147.936 25.776C147.441 25.9813 146.886 26.084 146.27 26.084C145.486 26.084 144.791 25.9253 144.184 25.608C143.577 25.2813 143.106 24.8287 142.77 24.25C142.443 23.6713 142.28 23.018 142.28 22.29C142.28 21.5713 142.439 20.9227 142.756 20.344C143.083 19.7653 143.526 19.3173 144.086 19C144.655 18.6733 145.295 18.51 146.004 18.51C146.713 18.51 147.343 18.6733 147.894 19C148.454 19.3173 148.888 19.7653 149.196 20.344C149.513 20.9227 149.672 21.5853 149.672 22.332ZM146.004 19.644C145.36 19.644 144.819 19.84 144.38 20.232C143.951 20.624 143.699 21.1373 143.624 21.772H148.384C148.309 21.1467 148.053 20.638 147.614 20.246C147.185 19.8447 146.648 19.644 146.004 19.644ZM159.18 24.824V27.722H157.92V26H151.718V27.722H150.444V24.824H150.836C151.312 24.796 151.639 24.46 151.816 23.816C151.993 23.172 152.115 22.262 152.18 21.086L152.292 18.58H158.046V24.824H159.18ZM153.412 21.184C153.375 22.1173 153.295 22.892 153.174 23.508C153.062 24.1147 152.852 24.5533 152.544 24.824H156.702V19.756H153.482L153.412 21.184ZM164.109 26.084C163.372 26.084 162.709 25.9207 162.121 25.594C161.533 25.2673 161.071 24.8193 160.735 24.25C160.408 23.6713 160.245 23.018 160.245 22.29C160.245 21.562 160.408 20.9133 160.735 20.344C161.071 19.7653 161.533 19.3173 162.121 19C162.709 18.6733 163.372 18.51 164.109 18.51C164.846 18.51 165.504 18.6733 166.083 19C166.671 19.3173 167.128 19.7653 167.455 20.344C167.791 20.9133 167.959 21.562 167.959 22.29C167.959 23.018 167.791 23.6713 167.455 24.25C167.128 24.8193 166.671 25.2673 166.083 25.594C165.504 25.9207 164.846 26.084 164.109 26.084ZM164.109 24.908C164.585 24.908 165.01 24.8007 165.383 24.586C165.766 24.362 166.064 24.054 166.279 23.662C166.494 23.2607 166.601 22.8033 166.601 22.29C166.601 21.7767 166.494 21.324 166.279 20.932C166.064 20.5307 165.766 20.2227 165.383 20.008C165.01 19.7933 164.585 19.686 164.109 19.686C163.633 19.686 163.204 19.7933 162.821 20.008C162.448 20.2227 162.149 20.5307 161.925 20.932C161.71 21.324 161.603 21.7767 161.603 22.29C161.603 22.8033 161.71 23.2607 161.925 23.662C162.149 24.054 162.448 24.362 162.821 24.586C163.204 24.8007 163.633 24.908 164.109 24.908ZM173.134 26.084C172.378 26.084 171.701 25.9207 171.104 25.594C170.516 25.2673 170.054 24.8193 169.718 24.25C169.382 23.6713 169.214 23.018 169.214 22.29C169.214 21.562 169.382 20.9133 169.718 20.344C170.054 19.7653 170.516 19.3173 171.104 19C171.701 18.6733 172.378 18.51 173.134 18.51C173.806 18.51 174.403 18.6453 174.926 18.916C175.458 19.1867 175.868 19.5787 176.158 20.092L175.136 20.75C174.902 20.3953 174.613 20.1293 174.268 19.952C173.922 19.7747 173.54 19.686 173.12 19.686C172.634 19.686 172.196 19.7933 171.804 20.008C171.421 20.2227 171.118 20.5307 170.894 20.932C170.679 21.324 170.572 21.7767 170.572 22.29C170.572 22.8127 170.679 23.2747 170.894 23.676C171.118 24.068 171.421 24.3713 171.804 24.586C172.196 24.8007 172.634 24.908 173.12 24.908C173.54 24.908 173.922 24.8193 174.268 24.642C174.613 24.4647 174.902 24.1987 175.136 23.844L176.158 24.488C175.868 25.0013 175.458 25.398 174.926 25.678C174.403 25.9487 173.806 26.084 173.134 26.084ZM183.332 19.756H180.616V26H179.272V19.756H176.556V18.58H183.332V19.756ZM187.352 18.51C188.379 18.51 189.163 18.762 189.704 19.266C190.255 19.77 190.53 20.5213 190.53 21.52V26H189.256V25.02C189.032 25.3653 188.71 25.6313 188.29 25.818C187.88 25.9953 187.39 26.084 186.82 26.084C185.99 26.084 185.322 25.8833 184.818 25.482C184.324 25.0807 184.076 24.5533 184.076 23.9C184.076 23.2467 184.314 22.724 184.79 22.332C185.266 21.9307 186.022 21.73 187.058 21.73H189.186V21.464C189.186 20.8853 189.018 20.442 188.682 20.134C188.346 19.826 187.852 19.672 187.198 19.672C186.76 19.672 186.33 19.7467 185.91 19.896C185.49 20.036 185.136 20.2273 184.846 20.47L184.286 19.462C184.669 19.154 185.126 18.9207 185.658 18.762C186.19 18.594 186.755 18.51 187.352 18.51ZM187.044 25.048C187.558 25.048 188.001 24.936 188.374 24.712C188.748 24.4787 189.018 24.152 189.186 23.732V22.696H187.114C185.976 22.696 185.406 23.0787 185.406 23.844C185.406 24.2173 185.551 24.5113 185.84 24.726C186.13 24.9407 186.531 25.048 187.044 25.048ZM198.48 19.756H195.764V26H194.42V19.756H191.704V18.58H198.48V19.756ZM202.705 26.084C201.967 26.084 201.305 25.9207 200.717 25.594C200.129 25.2673 199.667 24.8193 199.331 24.25C199.004 23.6713 198.841 23.018 198.841 22.29C198.841 21.562 199.004 20.9133 199.331 20.344C199.667 19.7653 200.129 19.3173 200.717 19C201.305 18.6733 201.967 18.51 202.705 18.51C203.442 18.51 204.1 18.6733 204.679 19C205.267 19.3173 205.724 19.7653 206.051 20.344C206.387 20.9133 206.555 21.562 206.555 22.29C206.555 23.018 206.387 23.6713 206.051 24.25C205.724 24.8193 205.267 25.2673 204.679 25.594C204.1 25.9207 203.442 26.084 202.705 26.084ZM202.705 24.908C203.181 24.908 203.605 24.8007 203.979 24.586C204.361 24.362 204.66 24.054 204.875 23.662C205.089 23.2607 205.197 22.8033 205.197 22.29C205.197 21.7767 205.089 21.324 204.875 20.932C204.66 20.5307 204.361 20.2227 203.979 20.008C203.605 19.7933 203.181 19.686 202.705 19.686C202.229 19.686 201.799 19.7933 201.417 20.008C201.043 20.2227 200.745 20.5307 200.521 20.932C200.306 21.324 200.199 21.7767 200.199 22.29C200.199 22.8033 200.306 23.2607 200.521 23.662C200.745 24.054 201.043 24.362 201.417 24.586C201.799 24.8007 202.229 24.908 202.705 24.908ZM214.417 18.58V26H213.073V23.004C212.271 23.3773 211.473 23.564 210.679 23.564C209.755 23.564 209.041 23.3493 208.537 22.92C208.033 22.4907 207.781 21.8467 207.781 20.988V18.58H209.125V20.904C209.125 21.4173 209.284 21.8047 209.601 22.066C209.928 22.3273 210.381 22.458 210.959 22.458C211.613 22.458 212.317 22.2947 213.073 21.968V18.58H214.417ZM217.027 18.58H218.371V21.73H222.599V18.58H223.943V26H222.599V22.892H218.371V26H217.027V18.58ZM229.734 26.084C228.997 26.084 228.334 25.9207 227.746 25.594C227.158 25.2673 226.696 24.8193 226.36 24.25C226.033 23.6713 225.87 23.018 225.87 22.29C225.87 21.562 226.033 20.9133 226.36 20.344C226.696 19.7653 227.158 19.3173 227.746 19C228.334 18.6733 228.997 18.51 229.734 18.51C230.471 18.51 231.129 18.6733 231.708 19C232.296 19.3173 232.753 19.7653 233.08 20.344C233.416 20.9133 233.584 21.562 233.584 22.29C233.584 23.018 233.416 23.6713 233.08 24.25C232.753 24.8193 232.296 25.2673 231.708 25.594C231.129 25.9207 230.471 26.084 229.734 26.084ZM229.734 24.908C230.21 24.908 230.635 24.8007 231.008 24.586C231.391 24.362 231.689 24.054 231.904 23.662C232.119 23.2607 232.226 22.8033 232.226 22.29C232.226 21.7767 232.119 21.324 231.904 20.932C231.689 20.5307 231.391 20.2227 231.008 20.008C230.635 19.7933 230.21 19.686 229.734 19.686C229.258 19.686 228.829 19.7933 228.446 20.008C228.073 20.2227 227.774 20.5307 227.55 20.932C227.335 21.324 227.228 21.7767 227.228 22.29C227.228 22.8033 227.335 23.2607 227.55 23.662C227.774 24.054 228.073 24.362 228.446 24.586C228.829 24.8007 229.258 24.908 229.734 24.908ZM19.924 39.58L16.326 47.742C16.0087 48.498 15.6353 49.03 15.206 49.338C14.786 49.646 14.2773 49.8 13.68 49.8C13.316 49.8 12.9613 49.7393 12.616 49.618C12.28 49.506 12 49.338 11.776 49.114L12.35 48.106C12.7327 48.47 13.176 48.652 13.68 48.652C14.0067 48.652 14.2773 48.5633 14.492 48.386C14.716 48.218 14.9167 47.924 15.094 47.504L15.332 46.986L12.056 39.58H13.456L16.046 45.516L18.608 39.58H19.924ZM24.9843 39.832C25.675 39.832 26.291 39.986 26.8323 40.294C27.3737 40.602 27.7937 41.0313 28.0923 41.582C28.4003 42.1233 28.5543 42.744 28.5543 43.444C28.5543 44.1627 28.391 44.802 28.0643 45.362C27.747 45.9127 27.2943 46.342 26.7063 46.65C26.1277 46.958 25.465 47.112 24.7183 47.112C23.4583 47.112 22.483 46.6827 21.7923 45.824C21.111 44.956 20.7703 43.738 20.7703 42.17C20.7703 40.6487 21.083 39.4587 21.7083 38.6C22.3337 37.732 23.2903 37.158 24.5783 36.878L27.9663 36.122L28.1623 37.354L25.0403 38.026C24.0697 38.2407 23.3463 38.6047 22.8703 39.118C22.3943 39.6313 22.1237 40.3687 22.0583 41.33C22.3757 40.854 22.7863 40.4853 23.2903 40.224C23.7943 39.9627 24.359 39.832 24.9843 39.832ZM24.7463 45.992C25.2223 45.992 25.6423 45.8847 26.0063 45.67C26.3797 45.4553 26.669 45.1613 26.8743 44.788C27.0797 44.4053 27.1823 43.9713 27.1823 43.486C27.1823 42.7487 26.9583 42.156 26.5103 41.708C26.0623 41.26 25.4743 41.036 24.7463 41.036C24.0183 41.036 23.4257 41.26 22.9683 41.708C22.5203 42.156 22.2963 42.7487 22.2963 43.486C22.2963 43.9713 22.399 44.4053 22.6043 44.788C22.819 45.1613 23.113 45.4553 23.4863 45.67C23.8597 45.8847 24.2797 45.992 24.7463 45.992ZM37.1799 43.332C37.1799 43.4347 37.1705 43.57 37.1519 43.738H31.1319C31.2159 44.3913 31.5005 44.9187 31.9859 45.32C32.4805 45.712 33.0919 45.908 33.8199 45.908C34.7065 45.908 35.4205 45.6093 35.9619 45.012L36.7039 45.88C36.3679 46.272 35.9479 46.5707 35.4439 46.776C34.9492 46.9813 34.3939 47.084 33.7779 47.084C32.9939 47.084 32.2985 46.9253 31.6919 46.608C31.0852 46.2813 30.6139 45.8287 30.2779 45.25C29.9512 44.6713 29.7879 44.018 29.7879 43.29C29.7879 42.5713 29.9465 41.9227 30.2639 41.344C30.5905 40.7653 31.0339 40.3173 31.5939 40C32.1632 39.6733 32.8025 39.51 33.5119 39.51C34.2212 39.51 34.8512 39.6733 35.4019 40C35.9619 40.3173 36.3959 40.7653 36.7039 41.344C37.0212 41.9227 37.1799 42.5853 37.1799 43.332ZM33.5119 40.644C32.8679 40.644 32.3265 40.84 31.8879 41.232C31.4585 41.624 31.2065 42.1373 31.1319 42.772H35.8919C35.8172 42.1467 35.5605 41.638 35.1219 41.246C34.6925 40.8447 34.1559 40.644 33.5119 40.644ZM46.6878 45.824V48.722H45.4278V47H39.2258V48.722H37.9518V45.824H38.3438C38.8198 45.796 39.1465 45.46 39.3238 44.816C39.5012 44.172 39.6225 43.262 39.6878 42.086L39.7998 39.58H45.5538V45.824H46.6878ZM40.9198 42.184C40.8825 43.1173 40.8032 43.892 40.6818 44.508C40.5698 45.1147 40.3598 45.5533 40.0518 45.824H44.2098V40.756H40.9898L40.9198 42.184ZM48.4387 39.58H49.7827V44.984L54.3327 39.58H55.5507V47H54.2067V41.596L49.6707 47H48.4387V39.58ZM63.6894 40.756H60.9734V47H59.6294V40.756H56.9134V39.58H63.6894V40.756ZM71.4416 43.332C71.4416 43.4347 71.4323 43.57 71.4136 43.738H65.3936C65.4776 44.3913 65.7623 44.9187 66.2476 45.32C66.7423 45.712 67.3536 45.908 68.0816 45.908C68.9683 45.908 69.6823 45.6093 70.2236 45.012L70.9656 45.88C70.6296 46.272 70.2096 46.5707 69.7056 46.776C69.2109 46.9813 68.6556 47.084 68.0396 47.084C67.2556 47.084 66.5603 46.9253 65.9536 46.608C65.3469 46.2813 64.8756 45.8287 64.5396 45.25C64.2129 44.6713 64.0496 44.018 64.0496 43.29C64.0496 42.5713 64.2083 41.9227 64.5256 41.344C64.8523 40.7653 65.2956 40.3173 65.8556 40C66.4249 39.6733 67.0643 39.51 67.7736 39.51C68.4829 39.51 69.1129 39.6733 69.6636 40C70.2236 40.3173 70.6576 40.7653 70.9656 41.344C71.2829 41.9227 71.4416 42.5853 71.4416 43.332ZM67.7736 40.644C67.1296 40.644 66.5883 40.84 66.1496 41.232C65.7203 41.624 65.4683 42.1373 65.3936 42.772H70.1536C70.0789 42.1467 69.8223 41.638 69.3836 41.246C68.9543 40.8447 68.4176 40.644 67.7736 40.644ZM79.7736 39.58V47H78.4296V40.756H75.2376L75.1536 42.408C75.1069 43.4067 75.0182 44.242 74.8876 44.914C74.7569 45.5767 74.5422 46.1087 74.2436 46.51C73.9449 46.9113 73.5296 47.112 72.9976 47.112C72.7549 47.112 72.4796 47.07 72.1716 46.986L72.2556 45.852C72.3769 45.88 72.4889 45.894 72.5916 45.894C72.9649 45.894 73.2449 45.7307 73.4316 45.404C73.6182 45.0773 73.7396 44.69 73.7956 44.242C73.8516 43.794 73.9029 43.1547 73.9496 42.324L74.0756 39.58H79.7736ZM85.8023 42.1C86.745 42.1093 87.4636 42.324 87.9583 42.744C88.453 43.164 88.7003 43.7567 88.7003 44.522C88.7003 45.3247 88.4296 45.9453 87.8883 46.384C87.3563 46.8133 86.591 47.0233 85.5923 47.014L82.3723 47V39.58H83.7163V42.086L85.8023 42.1ZM85.4803 45.992C86.087 46.0013 86.5443 45.88 86.8523 45.628C87.1696 45.376 87.3283 45.0027 87.3283 44.508C87.3283 44.0227 87.1743 43.668 86.8663 43.444C86.5676 43.22 86.1056 43.1033 85.4803 43.094L83.7163 43.066V45.978L85.4803 45.992ZM90.425 39.58H91.769V42.73H95.997V39.58H97.341V47H95.997V43.892H91.769V47H90.425V39.58ZM103.3 42.1C104.234 42.1093 104.948 42.324 105.442 42.744C105.937 43.164 106.184 43.7567 106.184 44.522C106.184 45.3247 105.914 45.9453 105.372 46.384C104.84 46.8133 104.075 47.0233 103.076 47.014L99.9543 47V39.58H101.298V42.086L103.3 42.1ZM107.29 39.58H108.634V47H107.29V39.58ZM102.978 45.992C103.585 46.0013 104.042 45.88 104.35 45.628C104.668 45.376 104.826 45.0027 104.826 44.508C104.826 44.0227 104.672 43.668 104.364 43.444C104.056 43.22 103.594 43.1033 102.978 43.094L101.298 43.066V45.978L102.978 45.992ZM117.953 43.332C117.953 43.4347 117.944 43.57 117.925 43.738H111.905C111.989 44.3913 112.274 44.9187 112.759 45.32C113.254 45.712 113.865 45.908 114.593 45.908C115.48 45.908 116.194 45.6093 116.735 45.012L117.477 45.88C117.141 46.272 116.721 46.5707 116.217 46.776C115.723 46.9813 115.167 47.084 114.551 47.084C113.767 47.084 113.072 46.9253 112.465 46.608C111.859 46.2813 111.387 45.8287 111.051 45.25C110.725 44.6713 110.561 44.018 110.561 43.29C110.561 42.5713 110.72 41.9227 111.037 41.344C111.364 40.7653 111.807 40.3173 112.367 40C112.937 39.6733 113.576 39.51 114.285 39.51C114.995 39.51 115.625 39.6733 116.175 40C116.735 40.3173 117.169 40.7653 117.477 41.344C117.795 41.9227 117.953 42.5853 117.953 43.332ZM114.285 40.644C113.641 40.644 113.1 40.84 112.661 41.232C112.232 41.624 111.98 42.1373 111.905 42.772H116.665C116.591 42.1467 116.334 41.638 115.895 41.246C115.466 40.8447 114.929 40.644 114.285 40.644ZM120.346 45.166C120.608 45.166 120.822 45.2593 120.99 45.446C121.168 45.6233 121.256 45.8473 121.256 46.118C121.256 46.258 121.238 46.3933 121.2 46.524C121.172 46.6547 121.112 46.8553 121.018 47.126L120.36 49.072H119.478L119.996 46.986C119.819 46.9207 119.674 46.8133 119.562 46.664C119.46 46.5053 119.408 46.3233 119.408 46.118C119.408 45.838 119.497 45.6093 119.674 45.432C119.852 45.2547 120.076 45.166 120.346 45.166ZM129.854 43.864H128.314V47H126.97V39.58H128.314V42.716H129.882L132.29 39.58H133.732L130.918 43.15L133.928 47H132.346L129.854 43.864ZM137.846 39.51C138.873 39.51 139.657 39.762 140.198 40.266C140.749 40.77 141.024 41.5213 141.024 42.52V47H139.75V46.02C139.526 46.3653 139.204 46.6313 138.784 46.818C138.374 46.9953 137.884 47.084 137.314 47.084C136.484 47.084 135.816 46.8833 135.312 46.482C134.818 46.0807 134.57 45.5533 134.57 44.9C134.57 44.2467 134.808 43.724 135.284 43.332C135.76 42.9307 136.516 42.73 137.552 42.73H139.68V42.464C139.68 41.8853 139.512 41.442 139.176 41.134C138.84 40.826 138.346 40.672 137.692 40.672C137.254 40.672 136.824 40.7467 136.404 40.896C135.984 41.036 135.63 41.2273 135.34 41.47L134.78 40.462C135.163 40.154 135.62 39.9207 136.152 39.762C136.684 39.594 137.249 39.51 137.846 39.51ZM137.538 46.048C138.052 46.048 138.495 45.936 138.868 45.712C139.242 45.4787 139.512 45.152 139.68 44.732V43.696H137.608C136.47 43.696 135.9 44.0787 135.9 44.844C135.9 45.2173 136.045 45.5113 136.334 45.726C136.624 45.9407 137.025 46.048 137.538 46.048ZM146.329 43.864H144.789V47H143.445V39.58H144.789V42.716H146.357L148.765 39.58H150.207L147.393 43.15L150.403 47H148.821L146.329 43.864ZM162.446 39.58V47H161.102V40.756H156.916V47H155.572V39.58H162.446ZM168.98 39.51C169.699 39.51 170.343 39.6687 170.912 39.986C171.481 40.3033 171.925 40.7467 172.242 41.316C172.569 41.8853 172.732 42.5433 172.732 43.29C172.732 44.0367 172.569 44.6993 172.242 45.278C171.925 45.8473 171.481 46.2907 170.912 46.608C170.343 46.9253 169.699 47.084 168.98 47.084C168.448 47.084 167.958 46.9813 167.51 46.776C167.071 46.5707 166.698 46.272 166.39 45.88V49.716H165.046V39.58H166.334V40.756C166.633 40.3453 167.011 40.0373 167.468 39.832C167.925 39.6173 168.429 39.51 168.98 39.51ZM168.868 45.908C169.344 45.908 169.769 45.8007 170.142 45.586C170.525 45.362 170.823 45.054 171.038 44.662C171.262 44.2607 171.374 43.8033 171.374 43.29C171.374 42.7767 171.262 42.324 171.038 41.932C170.823 41.5307 170.525 41.2227 170.142 41.008C169.769 40.7933 169.344 40.686 168.868 40.686C168.401 40.686 167.977 40.798 167.594 41.022C167.221 41.2367 166.922 41.54 166.698 41.932C166.483 42.324 166.376 42.7767 166.376 43.29C166.376 43.8033 166.483 44.2607 166.698 44.662C166.913 45.054 167.211 45.362 167.594 45.586C167.977 45.8007 168.401 45.908 168.868 45.908ZM174.685 39.58H176.029V44.984L180.579 39.58H181.797V47H180.453V41.596L175.917 47H174.685V39.58ZM191.952 45.824V48.722H190.692V47H184.49V48.722H183.216V45.824H183.608C184.084 45.796 184.41 45.46 184.588 44.816C184.765 44.172 184.886 43.262 184.952 42.086L185.064 39.58H190.818V45.824H191.952ZM186.184 42.184C186.146 43.1173 186.067 43.892 185.946 44.508C185.834 45.1147 185.624 45.5533 185.316 45.824H189.474V40.756H186.254L186.184 42.184ZM200.324 39.58L196.726 47.742C196.409 48.498 196.036 49.03 195.606 49.338C195.186 49.646 194.678 49.8 194.08 49.8C193.716 49.8 193.362 49.7393 193.016 49.618C192.68 49.506 192.4 49.338 192.176 49.114L192.75 48.106C193.133 48.47 193.576 48.652 194.08 48.652C194.407 48.652 194.678 48.5633 194.892 48.386C195.116 48.218 195.317 47.924 195.494 47.504L195.732 46.986L192.456 39.58H193.856L196.446 45.516L199.008 39.58H200.324ZM210.254 39.58V47H209.036V41.582L206.264 46.16H205.676L202.932 41.568V47H201.7V39.58H203.086L205.998 44.592L208.994 39.58H210.254ZM215.516 39.51C216.543 39.51 217.327 39.762 217.868 40.266C218.419 40.77 218.694 41.5213 218.694 42.52V47H217.42V46.02C217.196 46.3653 216.874 46.6313 216.454 46.818C216.044 46.9953 215.554 47.084 214.984 47.084C214.154 47.084 213.486 46.8833 212.982 46.482C212.488 46.0807 212.24 45.5533 212.24 44.9C212.24 44.2467 212.478 43.724 212.954 43.332C213.43 42.9307 214.186 42.73 215.222 42.73H217.35V42.464C217.35 41.8853 217.182 41.442 216.846 41.134C216.51 40.826 216.016 40.672 215.362 40.672C214.924 40.672 214.494 40.7467 214.074 40.896C213.654 41.036 213.3 41.2273 213.01 41.47L212.45 40.462C212.833 40.154 213.29 39.9207 213.822 39.762C214.354 39.594 214.919 39.51 215.516 39.51ZM215.208 46.048C215.722 46.048 216.165 45.936 216.538 45.712C216.912 45.4787 217.182 45.152 217.35 44.732V43.696H215.278C214.14 43.696 213.57 44.0787 213.57 44.844C213.57 45.2173 213.715 45.5113 214.004 45.726C214.294 45.9407 214.695 46.048 215.208 46.048ZM226.645 40.756H223.928V47H222.585V40.756H219.869V39.58H226.645V40.756ZM231.449 42.1C232.391 42.1093 233.11 42.324 233.605 42.744C234.099 43.164 234.347 43.7567 234.347 44.522C234.347 45.3247 234.076 45.9453 233.535 46.384C233.003 46.8133 232.237 47.0233 231.239 47.014L228.019 47V39.58H229.363V42.086L231.449 42.1ZM231.127 45.992C231.733 46.0013 232.191 45.88 232.499 45.628C232.816 45.376 232.975 45.0027 232.975 44.508C232.975 44.0227 232.821 43.668 232.513 43.444C232.214 43.22 231.752 43.1033 231.127 43.094L229.363 43.066V45.978L231.127 45.992ZM246.201 39.58V47H244.857V40.756H241.665L241.581 42.408C241.535 43.4067 241.446 44.242 241.315 44.914C241.185 45.5767 240.97 46.1087 240.671 46.51C240.373 46.9113 239.957 47.112 239.425 47.112C239.183 47.112 238.907 47.07 238.599 46.986L238.683 45.852C238.805 45.88 238.917 45.894 239.019 45.894C239.393 45.894 239.673 45.7307 239.859 45.404C240.046 45.0773 240.167 44.69 240.223 44.242C240.279 43.794 240.331 43.1547 240.377 42.324L240.503 39.58H246.201ZM255.422 39.58L251.824 47.742C251.507 48.498 251.133 49.03 250.704 49.338C250.284 49.646 249.775 49.8 249.178 49.8C248.814 49.8 248.459 49.7393 248.114 49.618C247.778 49.506 247.498 49.338 247.274 49.114L247.848 48.106C248.231 48.47 248.674 48.652 249.178 48.652C249.505 48.652 249.775 48.5633 249.99 48.386C250.214 48.218 250.415 47.924 250.592 47.504L250.83 46.986L247.554 39.58H248.954L251.544 45.516L254.106 39.58H255.422ZM262.72 39.58V47H261.376V44.004C260.573 44.3773 259.775 44.564 258.982 44.564C258.058 44.564 257.344 44.3493 256.84 43.92C256.336 43.4907 256.084 42.8467 256.084 41.988V39.58H257.428V41.904C257.428 42.4173 257.587 42.8047 257.904 43.066C258.231 43.3273 258.683 43.458 259.262 43.458C259.915 43.458 260.62 43.2947 261.376 42.968V39.58H262.72ZM275.899 39.58V47H265.329V39.58H266.673V45.824H269.949V39.58H271.293V45.824H274.555V39.58H275.899ZM285.215 43.332C285.215 43.4347 285.206 43.57 285.187 43.738H279.167C279.251 44.3913 279.536 44.9187 280.021 45.32C280.516 45.712 281.127 45.908 281.855 45.908C282.742 45.908 283.456 45.6093 283.997 45.012L284.739 45.88C284.403 46.272 283.983 46.5707 283.479 46.776C282.984 46.9813 282.429 47.084 281.813 47.084C281.029 47.084 280.334 46.9253 279.727 46.608C279.12 46.2813 278.649 45.8287 278.313 45.25C277.986 44.6713 277.823 44.018 277.823 43.29C277.823 42.5713 277.982 41.9227 278.299 41.344C278.626 40.7653 279.069 40.3173 279.629 40C280.198 39.6733 280.838 39.51 281.547 39.51C282.256 39.51 282.886 39.6733 283.437 40C283.997 40.3173 284.431 40.7653 284.739 41.344C285.056 41.9227 285.215 42.5853 285.215 43.332ZM281.547 40.644C280.903 40.644 280.362 40.84 279.923 41.232C279.494 41.624 279.242 42.1373 279.167 42.772H283.927C283.852 42.1467 283.596 41.638 283.157 41.246C282.728 40.8447 282.191 40.644 281.547 40.644ZM288.534 43.906C288.534 43.5327 288.594 43.206 288.716 42.926C288.846 42.6367 289 42.394 289.178 42.198C289.364 42.002 289.607 41.7687 289.906 41.498C290.279 41.1713 290.554 40.8913 290.732 40.658C290.909 40.4153 290.998 40.126 290.998 39.79C290.998 39.3327 290.82 38.9687 290.466 38.698C290.111 38.418 289.621 38.278 288.996 38.278C287.904 38.278 287.068 38.6467 286.49 39.384L285.468 38.656C285.86 38.152 286.359 37.7647 286.966 37.494C287.582 37.2233 288.291 37.088 289.094 37.088C290.111 37.088 290.918 37.312 291.516 37.76C292.113 38.1987 292.412 38.8053 292.412 39.58C292.412 39.9627 292.346 40.3033 292.216 40.602C292.094 40.8913 291.945 41.134 291.768 41.33C291.59 41.526 291.352 41.7593 291.054 42.03C290.671 42.3753 290.386 42.6787 290.2 42.94C290.022 43.2013 289.934 43.5233 289.934 43.906H288.534ZM289.248 47.084C288.986 47.084 288.767 47 288.59 46.832C288.422 46.6547 288.338 46.44 288.338 46.188C288.338 45.936 288.422 45.726 288.59 45.558C288.767 45.3807 288.986 45.292 289.248 45.292C289.509 45.292 289.724 45.3807 289.892 45.558C290.06 45.726 290.144 45.936 290.144 46.188C290.144 46.44 290.055 46.6547 289.878 46.832C289.71 47 289.5 47.084 289.248 47.084Z" fill="#0F1528"/>
</svg>
